<svg width="134" height="41" viewBox="0 0 134 41" fill="none" xmlns="http://www.w3.org/2000/svg">
<path d="M128.619 39.3958H4.81549C2.69992 39.3958 0.940104 37.6029 0.940104 35.3328V4.79223C0.940104 2.52211 2.69992 0.729167 4.81549 0.729167H128.619C130.734 0.729167 132.494 2.52211 132.494 4.79223V35.3328C132.494 37.6029 130.734 39.3958 128.619 39.3958Z" fill="black" stroke="#E1E4E8" stroke-width="1.33333"/>
<path d="M46.2011 10.1284L45.6916 8.49234C45.5666 8.08825 45.4609 7.63735 45.3647 7.25297H45.3455C45.2518 7.63735 45.1533 8.09811 45.0403 8.49234L44.5404 10.1284H46.2011ZM44.3482 11.0425L43.7907 12.925H42.5698L44.6462 6.28711H46.153L48.2558 12.925H46.9893L46.4029 11.0425" fill="white"/>
<path d="M50.0226 8.12891L50.7821 10.5584C50.9166 10.9822 51.0104 11.3665 51.0969 11.7608H51.1257C51.2122 11.3665 51.318 10.992 51.4429 10.5584L52.1927 8.12891H53.4304L51.6448 12.9237H50.4841L48.7441 8.12891" fill="white"/>
<path d="M56.994 10.5791C56.1577 10.5692 55.3598 10.7466 55.3598 11.4759C55.3598 11.949 55.6578 12.1658 56.0327 12.1658C56.5109 12.1658 56.8498 11.8505 56.9627 11.5055C56.994 11.4168 56.994 11.3281 56.994 11.2394V10.5791ZM58.1451 11.7716C58.1451 12.2053 58.1643 12.6291 58.222 12.9223H57.155L57.0709 12.3925H57.0396C56.7633 12.7646 56.273 13.0307 55.6578 13.0307C54.7158 13.0307 54.1895 12.3334 54.1895 11.6041C54.1895 10.4017 55.2348 9.7832 56.9627 9.79306V9.71421C56.9627 9.39883 56.8402 8.87647 56.0135 8.87647C55.5521 8.87647 55.0714 9.02431 54.7542 9.23128L54.5235 8.44282C54.8696 8.22599 55.4752 8.02148 56.2154 8.02148C57.7125 8.02148 58.1451 8.99474 58.1451 10.0493" fill="white"/>
<path d="M59.8153 8.12963H60.9953V12.9245H59.8153V8.12963ZM60.3993 7.43972C60.0076 7.43972 59.748 7.14405 59.748 6.78924C59.748 6.41472 60.0148 6.12891 60.4113 6.12891C60.8127 6.12891 61.0626 6.41472 61.0722 6.78924C61.0722 7.14405 60.8127 7.43972 60.4113 7.43972" fill="white"/>
<path d="M62.6943 12.9244H63.8767V5.92188H62.6943V12.9244Z" fill="white"/>
<path d="M68.0633 10.5791C67.227 10.5692 66.4291 10.7466 66.4291 11.4759C66.4291 11.949 66.7271 12.1658 67.102 12.1658C67.5827 12.1658 67.9191 11.8505 68.0345 11.5055C68.0633 11.4168 68.0633 11.3281 68.0633 11.2394V10.5791ZM69.2145 11.7716C69.2145 12.2053 69.2337 12.6291 69.2914 12.9223H68.2267L68.1402 12.3925H68.1114C67.8326 12.7646 67.3424 13.0307 66.7271 13.0307C65.7875 13.0307 65.2588 12.3334 65.2588 11.6041C65.2588 10.4017 66.3066 9.7832 68.0345 9.79306V9.71421C68.0345 9.39883 67.9095 8.87647 67.0828 8.87647C66.6214 8.87647 66.1408 9.02431 65.8259 9.23128L65.5952 8.44282C65.9413 8.22599 66.5445 8.02148 67.2847 8.02148C68.7819 8.02148 69.2145 8.99474 69.2145 10.0493" fill="white"/>
<path d="M72.067 10.9434C72.067 11.0419 72.0766 11.1405 72.0959 11.2292C72.2208 11.722 72.6342 12.0768 73.1412 12.0768C73.8814 12.0768 74.3332 11.4756 74.3332 10.5023C74.3332 9.65475 73.9391 8.96484 73.1509 8.96484C72.6702 8.96484 72.2304 9.31965 72.1055 9.85186C72.0862 9.94057 72.067 10.049 72.067 10.1672V10.9434ZM70.8846 5.92188H72.067V8.78744H72.0862C72.3746 8.32422 72.8817 8.02115 73.5834 8.02115C74.7274 8.02115 75.542 8.99441 75.5324 10.4531C75.5324 12.1754 74.4678 13.0328 73.4104 13.0328C72.8048 13.0328 72.2689 12.7963 71.9324 12.2049H71.9132L71.8555 12.9244H70.8462C70.8654 12.5992 70.8846 12.0669 70.8846 11.584" fill="white"/>
<path d="M76.9238 12.9244H78.1038V5.92188H76.9238V12.9244Z" fill="white"/>
<path d="M82.7032 10.0197C82.7128 9.57623 82.5206 8.84691 81.7347 8.84691C81.0041 8.84691 80.6965 9.52695 80.6485 10.0197H82.7032ZM80.6485 10.8649C80.6773 11.7322 81.3406 12.1067 82.0904 12.1067C82.6359 12.1067 83.0204 12.018 83.3857 11.8899L83.5587 12.7153C83.155 12.8952 82.5975 13.0208 81.927 13.0208C80.4082 13.0208 79.5142 12.0673 79.5142 10.6012C79.5142 9.2707 80.3024 8.02148 81.802 8.02148C83.3184 8.02148 83.8183 9.30027 83.8183 10.3548C83.8183 10.5815 83.7991 10.7589 83.7798 10.8649" fill="white"/>
<path d="M89.6848 12.156C90.3553 12.156 90.8263 11.4858 90.8263 10.5125C90.8263 9.76349 90.4995 8.89618 89.6944 8.89618C88.8581 8.89618 88.5216 9.73392 88.5216 10.5322C88.5216 11.4562 88.9734 12.156 89.6728 12.156H89.6848ZM89.6463 13.0331C88.3294 13.0331 87.3032 12.1067 87.3032 10.5618C87.3032 8.98489 88.3102 8.02148 89.7232 8.02148C91.1147 8.02148 92.0471 9.02431 92.0471 10.483C92.0471 12.2447 90.8359 13.0331 89.656 13.0331" fill="white"/>
<path d="M93.436 9.55652C93.436 9.0046 93.4191 8.54138 93.3999 8.12743H94.4261L94.4837 8.8469H94.5126C94.7241 8.47239 95.2335 8.02148 96.0122 8.02148C96.8269 8.02148 97.6728 8.56109 97.6728 10.0789V12.9223H96.4904V10.2169C96.4904 9.52695 96.2405 9.0046 95.5988 9.0046C95.1278 9.0046 94.801 9.34955 94.676 9.71421C94.6376 9.81277 94.6183 9.96061 94.6183 10.0986V12.9223H93.436" fill="white"/>
<path d="M103.116 6.89844V8.12794H104.238V9.03468H103.116V11.1413C103.116 11.7327 103.27 12.0284 103.719 12.0284C103.931 12.0284 104.046 12.0185 104.181 11.9791L104.2 12.8932C104.027 12.9647 103.71 13.0213 103.344 13.0213C102.905 13.0213 102.549 12.8735 102.328 12.6296C102.068 12.3536 101.953 11.9101 101.953 11.2793V9.03468H101.29V8.12794H101.953V7.23353" fill="white"/>
<path d="M105.553 5.92188H106.736V8.77758H106.755C106.899 8.5509 107.101 8.36364 107.341 8.23552C107.582 8.1 107.858 8.02115 108.156 8.02115C108.954 8.02115 109.788 8.56076 109.788 10.0983V12.9244H108.608V10.2264C108.608 9.53648 108.358 9.00427 107.704 9.00427C107.245 9.00427 106.918 9.31965 106.784 9.68431C106.745 9.79273 106.736 9.92085 106.736 10.049V12.9244H105.553" fill="white"/>
<path d="M114.358 10.0197C114.368 9.57623 114.176 8.84691 113.388 8.84691C112.657 8.84691 112.352 9.52695 112.304 10.0197H114.358ZM112.304 10.8649C112.333 11.7322 112.993 12.1067 113.743 12.1067C114.291 12.1067 114.676 12.018 115.039 11.8899L115.214 12.7153C114.81 12.8952 114.253 13.0208 113.58 13.0208C112.063 13.0208 111.169 12.0673 111.169 10.6012C111.169 9.2707 111.958 8.02148 113.455 8.02148C114.971 8.02148 115.471 9.30027 115.471 10.3548C115.471 10.5815 115.452 10.7589 115.433 10.8649" fill="white"/>
<path d="M29.6549 19.3606C29.6237 16.0762 32.2768 14.4771 32.3994 14.4032C30.8974 12.156 28.5687 11.8505 27.7492 11.8259C25.7954 11.6164 23.8993 13.0283 22.9043 13.0283C21.8878 13.0283 20.3521 11.8481 18.7011 11.8826C16.5719 11.917 14.5821 13.181 13.491 15.1399C11.2416 19.1389 12.919 25.0129 15.0771 28.2456C16.1586 29.8274 17.4178 31.5966 19.0688 31.5325C20.6838 31.4635 21.287 30.4779 23.236 30.4779C25.1682 30.4779 25.7353 31.5325 27.42 31.4931C29.1527 31.4635 30.2437 29.9038 31.2843 28.3047C32.534 26.4913 33.0338 24.7049 33.0531 24.6137C33.0122 24.599 29.6886 23.298 29.6549 19.3606Z" fill="white"/>
<path d="M26.4731 9.70219C27.3407 8.58849 27.939 7.0707 27.7708 5.5332C26.5139 5.59234 24.9423 6.42515 24.0362 7.51421C23.236 8.47515 22.5174 10.0496 22.7049 11.528C24.118 11.6364 25.5671 10.7986 26.4731 9.70219Z" fill="white"/>
<path d="M49.145 25.6302L48.0299 22.0994C47.9122 21.7396 47.6911 20.8896 47.3642 19.5541H47.3258C47.196 20.1282 46.9845 20.9783 46.6986 22.0994L45.6027 25.6302H49.145ZM52.9998 31.2702H50.748L49.5151 27.2983H45.2326L44.0574 31.2702H41.8657L46.1146 17.748H48.7341" fill="white"/>
<path d="M61.7671 26.3547C61.7671 25.4036 61.558 24.6225 61.1398 24.0065C60.6832 23.3659 60.0704 23.0431 59.3014 23.0431C58.7799 23.0431 58.304 23.223 57.8835 23.5753C57.4605 23.9326 57.1817 24.3958 57.0496 24.9724C56.9847 25.2385 56.9534 25.4578 56.9534 25.6303V27.2565C56.9534 27.9661 57.1649 28.5648 57.5879 29.0527C58.0132 29.543 58.5636 29.7845 59.2413 29.7845C60.0391 29.7845 60.6592 29.4715 61.099 28.8408C61.546 28.2125 61.7671 27.3846 61.7671 26.3547ZM63.9203 26.2733C63.9203 27.9316 63.4829 29.2449 62.6082 30.2058C61.8247 31.0633 60.8514 31.4895 59.6931 31.4895C58.4386 31.4895 57.5398 31.0263 56.9919 30.1048H56.9534V35.2421H54.8386V24.7285C54.8386 23.6862 54.8146 22.6169 54.7617 21.5179H56.6194L56.7372 23.0653H56.778C57.4821 21.8998 58.5516 21.3184 59.9863 21.3184C61.1062 21.3184 62.0458 21.7742 62.7932 22.6834C63.543 23.595 63.9203 24.7901 63.9203 26.2733Z" fill="white"/>
<path d="M72.7041 26.3547C72.7041 25.4036 72.495 24.6225 72.0769 24.0065C71.6203 23.3659 71.0074 23.0431 70.2384 23.0431C69.7169 23.0431 69.2435 23.223 68.8205 23.5753C68.3952 23.9326 68.1212 24.3958 67.9914 24.9724C67.9241 25.2385 67.8929 25.4578 67.8929 25.6303V27.2565C67.8929 27.9661 68.102 28.5648 68.5249 29.0527C68.9503 29.543 69.5006 29.7845 70.1807 29.7845C70.9762 29.7845 71.5962 29.4715 72.0384 28.8408C72.4806 28.2125 72.7041 27.3846 72.7041 26.3547ZM74.855 26.2733C74.855 27.9316 74.42 29.2449 73.5452 30.2058C72.7618 31.0633 71.7909 31.4895 70.6301 31.4895C69.3781 31.4895 68.4793 31.0263 67.9289 30.1048H67.8929V35.2421H65.7781V24.7285C65.7781 23.6862 65.7516 22.6169 65.7012 21.5179H67.5588L67.6766 23.0653H67.7175C68.4192 21.8998 69.4886 21.3184 70.9233 21.3184C72.0456 21.3184 72.9805 21.7742 73.7327 22.6834C74.4825 23.595 74.855 24.7901 74.855 26.2733Z" fill="white"/>
<path d="M87.0872 27.479C87.0872 28.6272 86.6978 29.5635 85.9144 30.2879C85.054 31.0764 83.8597 31.4706 82.324 31.4706C80.9037 31.4706 79.7646 31.1897 78.9019 30.6279L79.3921 28.8243C80.3221 29.3984 81.3387 29.6843 82.449 29.6843C83.2444 29.6843 83.8645 29.5019 84.3091 29.1348C84.7512 28.7652 84.9723 28.2724 84.9723 27.6564C84.9723 27.1094 84.7921 26.6438 84.4268 26.2692C84.0615 25.8947 83.4535 25.5473 82.6052 25.2245C80.2957 24.34 79.1422 23.0464 79.1422 21.3463C79.1422 20.235 79.5459 19.3234 80.3558 18.6138C81.1633 17.9041 82.2399 17.5469 83.5833 17.5469C84.7849 17.5469 85.7822 17.7637 86.5777 18.19L86.049 19.9566C85.3064 19.5427 84.4653 19.3332 83.5256 19.3332C82.7806 19.3332 82.2015 19.5205 81.7857 19.895C81.4348 20.2301 81.257 20.6391 81.257 21.1196C81.257 21.6543 81.4565 22.0953 81.8626 22.4427C82.2135 22.763 82.8527 23.1105 83.7804 23.4874C84.9147 23.9556 85.7486 24.5026 86.2845 25.1309C86.818 25.7592 87.0872 26.5427 87.0872 27.479Z" fill="white"/>
<path d="M94.071 23.145H91.7423V27.8782C91.7423 29.0831 92.1533 29.6843 92.9776 29.6843C93.3525 29.6843 93.6673 29.6523 93.9148 29.5857L93.9725 31.2292C93.5591 31.3918 93.0088 31.4706 92.3311 31.4706C91.4972 31.4706 90.8435 31.2095 90.3725 30.6896C89.9039 30.1672 89.6683 29.2901 89.6683 28.0605V23.145H88.2793V21.5188H89.6683V19.7349L91.7423 19.0918V21.5188H94.071" fill="white"/>
<path d="M102.388 26.3842C102.388 25.4849 102.198 24.7161 101.819 24.0706C101.379 23.292 100.744 22.9027 99.9226 22.9027C99.0742 22.9027 98.4278 23.292 97.9856 24.0706C97.6059 24.7161 97.4208 25.4997 97.4208 26.4261C97.4208 27.3255 97.6059 28.0942 97.9856 28.7373C98.4422 29.5159 99.0815 29.9052 99.9058 29.9052C100.711 29.9052 101.345 29.511 101.802 28.7176C102.194 28.0622 102.388 27.2836 102.388 26.3842ZM104.58 26.3152C104.58 27.8133 104.164 29.0428 103.328 30.0062C102.453 30.9967 101.292 31.4895 99.8457 31.4895C98.447 31.4895 97.3367 31.014 96.5076 30.0654C95.6809 29.1167 95.2676 27.9193 95.2676 26.4754C95.2676 24.9625 95.6929 23.7256 96.5485 22.7647C97.4016 21.7988 98.5528 21.3184 99.9995 21.3184C101.396 21.3184 102.52 21.7939 103.366 22.7425C104.176 23.669 104.58 24.8566 104.58 26.3152Z" fill="white"/>
<path d="M111.448 23.425C111.239 23.3856 111.018 23.3659 110.783 23.3659C110.04 23.3659 109.463 23.6542 109.06 24.2283C108.709 24.7383 108.533 25.3789 108.533 26.1526V31.2702H106.421L106.438 24.5905C106.438 23.4645 106.411 22.4419 106.361 21.5179H108.202L108.279 23.3856H108.334C108.557 22.745 108.911 22.2276 109.391 21.8407C109.862 21.4933 110.372 21.3184 110.92 21.3184C111.114 21.3184 111.292 21.3331 111.448 21.3578" fill="white"/>
<path d="M118.882 25.3717C118.896 24.7311 118.759 24.1742 118.473 23.7061C118.108 23.1049 117.543 22.8018 116.788 22.8018C116.099 22.8018 115.536 23.0975 115.106 23.6864C114.755 24.1545 114.544 24.7163 114.484 25.3717H118.882ZM120.895 25.9335C120.895 26.3228 120.871 26.648 120.821 26.9166H114.484C114.505 27.88 114.813 28.6167 115.402 29.1243C115.935 29.5801 116.627 29.8044 117.476 29.8044C118.413 29.8044 119.268 29.6516 120.04 29.3436L120.372 30.8491C119.47 31.2482 118.408 31.4527 117.18 31.4527C115.707 31.4527 114.549 31.0068 113.707 30.1148C112.869 29.2278 112.446 28.0328 112.446 26.5347C112.446 25.0637 112.835 23.8392 113.621 22.8634C114.44 21.8187 115.551 21.2988 116.945 21.2988C118.314 21.2988 119.355 21.8187 120.059 22.8634C120.619 23.6913 120.895 24.7163 120.895 25.9335Z" fill="white"/>
</svg>
