<svg width="135" height="42" viewBox="0 0 135 42" fill="none" xmlns="http://www.w3.org/2000/svg">
<path d="M129.255 39.954H5.45123C2.94229 39.954 0.90918 37.8695 0.90918 35.2971V5.22716C0.90918 2.65481 2.94229 0.570312 5.45123 0.570312H129.255C131.763 0.570312 133.797 2.65481 133.797 5.22716V35.2971C133.797 37.8695 131.763 39.954 129.255 39.954Z" fill="black"/>
<mask id="mask0_11357_11961" style="mask-type:luminance" maskUnits="userSpaceOnUse" x="0" y="0" width="135" height="42">
<path d="M0.412109 0.0625H134.29V41.0625H0.412109V0.0625Z" fill="white"/>
</mask>
<g mask="url(#mask0_11357_11961)">
<path d="M5.44922 1.08062C3.21905 1.08062 1.40463 2.9409 1.40463 5.22743V35.2974C1.40463 37.5839 3.21905 39.4442 5.44922 39.4442H129.255C131.485 39.4442 133.3 37.5839 133.3 35.2974V5.22743C133.3 2.9409 131.485 1.08062 129.255 1.08062H5.44922ZM129.255 40.4643H5.44922C2.67112 40.4643 0.412109 38.1457 0.412109 35.2974V5.22743C0.412109 2.37912 2.67112 0.0605469 5.44922 0.0605469H129.255C132.033 0.0605469 134.292 2.37912 134.292 5.22743V35.2974C134.292 38.1457 132.033 40.4643 129.255 40.4643Z" fill="#A7A9AB"/>
</g>
<path d="M46.8373 10.6362L46.3278 9.00015C46.2028 8.59606 46.0971 8.14516 46.001 7.76079H45.9818C45.888 8.14516 45.7895 8.60592 45.6765 9.00015L45.1767 10.6362H46.8373ZM44.9844 11.5503L44.4269 13.4328H43.2061L45.2824 6.79492H46.7892L48.892 13.4328H47.6255L47.0392 11.5503" fill="white"/>
<path d="M50.6584 8.63672L51.4178 11.0662C51.5524 11.49 51.6461 11.8743 51.7326 12.2686H51.7615C51.848 11.8743 51.9537 11.4998 52.0787 11.0662L52.8285 8.63672H54.0661L52.2805 13.4316H51.1198L49.3799 8.63672" fill="white"/>
<path d="M57.6302 11.0869C56.7939 11.077 55.996 11.2544 55.996 11.9837C55.996 12.4568 56.294 12.6736 56.6689 12.6736C57.1472 12.6736 57.486 12.3583 57.599 12.0133C57.6302 11.9246 57.6302 11.8359 57.6302 11.7472V11.0869ZM58.7814 12.2794C58.7814 12.7131 58.8006 13.1369 58.8583 13.4301H57.7912L57.7071 12.9003H57.6759C57.3995 13.2724 56.9093 13.5385 56.294 13.5385C55.352 13.5385 54.8257 12.8412 54.8257 12.1119C54.8257 10.9095 55.8711 10.291 57.599 10.3009V10.222C57.599 9.90664 57.4764 9.38428 56.6497 9.38428C56.1883 9.38428 55.7077 9.53212 55.3904 9.73909L55.1597 8.95063C55.5058 8.7338 56.1114 8.5293 56.8516 8.5293C58.3488 8.5293 58.7814 9.50255 58.7814 10.5571" fill="white"/>
<path d="M60.4516 8.63744H61.6315V13.4323H60.4516V8.63744ZM61.0355 7.94754C60.6438 7.94754 60.3843 7.65186 60.3843 7.29706C60.3843 6.92254 60.651 6.63672 61.0476 6.63672C61.4489 6.63672 61.6988 6.92254 61.7084 7.29706C61.7084 7.65186 61.4489 7.94754 61.0476 7.94754" fill="white"/>
<path d="M63.3301 13.4322H64.5125V6.42969H63.3301V13.4322Z" fill="white"/>
<path d="M68.6991 11.0869C67.8628 11.077 67.0649 11.2544 67.0649 11.9837C67.0649 12.4568 67.3629 12.6736 67.7378 12.6736C68.2184 12.6736 68.5549 12.3583 68.6702 12.0133C68.6991 11.9246 68.6991 11.8359 68.6991 11.7472V11.0869ZM69.8502 12.2794C69.8502 12.7131 69.8694 13.1369 69.9271 13.4301H68.8625L68.776 12.9003H68.7471C68.4684 13.2724 67.9781 13.5385 67.3629 13.5385C66.4232 13.5385 65.8945 12.8412 65.8945 12.1119C65.8945 10.9095 66.9423 10.291 68.6702 10.3009V10.222C68.6702 9.90664 68.5453 9.38428 67.7186 9.38428C67.2571 9.38428 66.7765 9.53212 66.4617 9.73909L66.231 8.95063C66.577 8.7338 67.1802 8.5293 67.9204 8.5293C69.4176 8.5293 69.8502 9.50255 69.8502 10.5571" fill="white"/>
<path d="M72.7028 11.4512C72.7028 11.5498 72.7124 11.6483 72.7316 11.737C72.8566 12.2298 73.2699 12.5846 73.777 12.5846C74.5172 12.5846 74.969 11.9834 74.969 11.0102C74.969 10.1626 74.5749 9.47266 73.7866 9.47266C73.306 9.47266 72.8662 9.82746 72.7412 10.3597C72.722 10.4484 72.7028 10.5568 72.7028 10.6751V11.4512ZM71.5204 6.42969H72.7028V9.29525H72.722C73.0104 8.83203 73.5174 8.52897 74.2192 8.52897C75.3631 8.52897 76.1778 9.50222 76.1682 10.9609C76.1682 12.6832 75.1036 13.5406 74.0461 13.5406C73.4405 13.5406 72.9046 13.3041 72.5682 12.7127H72.549L72.4913 13.4322H71.4819C71.5012 13.107 71.5204 12.5748 71.5204 12.0918" fill="white"/>
<path d="M77.5596 13.4322H78.7395V6.42969H77.5596V13.4322Z" fill="white"/>
<path d="M83.3394 10.5276C83.3491 10.084 83.1568 9.35472 82.3709 9.35472C81.6404 9.35472 81.3328 10.0348 81.2847 10.5276H83.3394ZM81.2847 11.3727C81.3135 12.24 81.9768 12.6145 82.7266 12.6145C83.2721 12.6145 83.6567 12.5258 84.0219 12.3977L84.195 13.2231C83.7912 13.403 83.2337 13.5286 82.5632 13.5286C81.0444 13.5286 80.1504 12.5751 80.1504 11.109C80.1504 9.77852 80.9386 8.5293 82.4382 8.5293C83.9547 8.5293 84.4545 9.80808 84.4545 10.8627C84.4545 11.0893 84.4353 11.2667 84.4161 11.3727" fill="white"/>
<path d="M90.321 12.6638C90.9915 12.6638 91.4625 11.9936 91.4625 11.0203C91.4625 10.2713 91.1357 9.404 90.3306 9.404C89.4943 9.404 89.1579 10.2417 89.1579 11.0401C89.1579 11.964 89.6097 12.6638 90.309 12.6638H90.321ZM90.2826 13.541C88.9656 13.541 87.9395 12.6145 87.9395 11.0696C87.9395 9.4927 88.9464 8.5293 90.3595 8.5293C91.7509 8.5293 92.6834 9.53212 92.6834 10.9908C92.6834 12.7525 91.4722 13.541 90.2922 13.541" fill="white"/>
<path d="M94.0722 10.0643C94.0722 9.51241 94.0554 9.04919 94.0361 8.63525H95.0623L95.12 9.35472H95.1488C95.3603 8.9802 95.8698 8.5293 96.6484 8.5293C97.4631 8.5293 98.309 9.0689 98.309 10.5867V13.4301H97.1266V10.7247C97.1266 10.0348 96.8767 9.51241 96.2351 9.51241C95.764 9.51241 95.4372 9.85736 95.3122 10.222C95.2738 10.3206 95.2546 10.4684 95.2546 10.6064V13.4301H94.0722" fill="white"/>
<path d="M103.752 7.4043V8.6338H104.874V9.54053H103.752V11.6472C103.752 12.2386 103.906 12.5342 104.355 12.5342C104.566 12.5342 104.682 12.5244 104.816 12.4849L104.836 13.3991C104.663 13.4705 104.345 13.5272 103.98 13.5272C103.54 13.5272 103.185 13.3794 102.963 13.1354C102.704 12.8595 102.589 12.416 102.589 11.7852V9.54053H101.925V8.6338H102.589V7.73939" fill="white"/>
<path d="M106.189 6.42969H107.372V9.2854H107.391C107.535 9.05871 107.737 8.87145 107.977 8.74333C108.218 8.60781 108.494 8.52897 108.792 8.52897C109.59 8.52897 110.424 9.06857 110.424 10.6061V13.4322H109.244V10.7342C109.244 10.0443 108.994 9.51208 108.34 9.51208C107.881 9.51208 107.554 9.82746 107.42 10.1921C107.381 10.3005 107.372 10.4287 107.372 10.5568V13.4322H106.189" fill="white"/>
<path d="M114.995 10.5276C115.004 10.084 114.812 9.35472 114.024 9.35472C113.293 9.35472 112.988 10.0348 112.94 10.5276H114.995ZM112.94 11.3727C112.969 12.24 113.63 12.6145 114.379 12.6145C114.927 12.6145 115.312 12.5258 115.675 12.3977L115.85 13.2231C115.447 13.403 114.889 13.5286 114.216 13.5286C112.7 13.5286 111.806 12.5751 111.806 11.109C111.806 9.77852 112.594 8.5293 114.091 8.5293C115.608 8.5293 116.107 9.80808 116.107 10.8627C116.107 11.0893 116.088 11.2667 116.069 11.3727" fill="white"/>
<path d="M30.2907 19.8684C30.2594 16.584 32.9126 14.9849 33.0351 14.911C31.5331 12.6639 29.2044 12.3583 28.3849 12.3337C26.4311 12.1243 24.535 13.5361 23.5401 13.5361C22.5235 13.5361 20.9879 12.3559 19.3369 12.3904C17.2076 12.4249 15.2178 13.6889 14.1267 15.6477C11.8773 19.6467 13.5548 25.5207 15.7129 28.7534C16.7943 30.3353 18.0536 32.1044 19.7046 32.0403C21.3195 31.9713 21.9227 30.9857 23.8717 30.9857C25.8039 30.9857 26.371 32.0403 28.0557 32.0009C29.7884 31.9713 30.8795 30.4116 31.92 28.8125C33.1697 26.9991 33.6696 25.2127 33.6888 25.1216C33.6479 25.1068 30.3243 23.8058 30.2907 19.8684Z" fill="white"/>
<path d="M27.1093 10.21C27.9769 9.0963 28.5753 7.57852 28.4071 6.04102C27.1502 6.10015 25.5785 6.93296 24.6725 8.02203C23.8722 8.98296 23.1537 10.5574 23.3411 12.0358C24.7542 12.1442 26.2033 11.3065 27.1093 10.21Z" fill="white"/>
<path d="M49.7808 26.138L48.6657 22.6072C48.5479 22.2474 48.3268 21.3974 48 20.0619H47.9615C47.8318 20.636 47.6203 21.4861 47.3343 22.6072L46.2384 26.138H49.7808ZM53.6355 31.778H51.3837L50.1509 27.8061H45.8683L44.6932 31.778H42.5015L46.7503 18.2559H49.3698" fill="white"/>
<path d="M62.4028 26.8625C62.4028 25.9114 62.1937 25.1303 61.7756 24.5143C61.3189 23.8737 60.7061 23.5509 59.9371 23.5509C59.4156 23.5509 58.9398 23.7308 58.5192 24.0831C58.0963 24.4404 57.8175 24.9036 57.6853 25.4802C57.6204 25.7463 57.5892 25.9656 57.5892 26.1381V27.7643C57.5892 28.4739 57.8007 29.0726 58.2236 29.5605C58.649 30.0508 59.1993 30.2923 59.877 30.2923C60.6749 30.2923 61.2949 29.9794 61.7347 29.3486C62.1817 28.7203 62.4028 27.8924 62.4028 26.8625ZM64.5561 26.7812C64.5561 28.4394 64.1187 29.7527 63.2439 30.7136C62.4605 31.5711 61.4872 31.9973 60.3288 31.9973C59.0744 31.9973 58.1756 31.5341 57.6276 30.6126H57.5892V35.7499H55.4744V25.2363C55.4744 24.194 55.4503 23.1247 55.3975 22.0258H57.2551L57.3729 23.5731H57.4137C58.1179 22.4077 59.1873 21.8262 60.622 21.8262C61.7419 21.8262 62.6816 22.282 63.429 23.1912C64.1788 24.1029 64.5561 25.2979 64.5561 26.7812Z" fill="white"/>
<path d="M73.3398 26.8625C73.3398 25.9114 73.1308 25.1303 72.7126 24.5143C72.256 23.8737 71.6432 23.5509 70.8742 23.5509C70.3527 23.5509 69.8792 23.7308 69.4563 24.0831C69.0309 24.4404 68.7569 24.9036 68.6272 25.4802C68.5599 25.7463 68.5286 25.9656 68.5286 26.1381V27.7643C68.5286 28.4739 68.7377 29.0726 69.1607 29.5605C69.586 30.0508 70.1364 30.2923 70.8165 30.2923C71.6119 30.2923 72.232 29.9794 72.6742 29.3486C73.1163 28.7203 73.3398 27.8924 73.3398 26.8625ZM75.4907 26.7812C75.4907 28.4394 75.0557 29.7527 74.181 30.7136C73.3975 31.5711 72.4266 31.9973 71.2659 31.9973C70.0138 31.9973 69.115 31.5341 68.5647 30.6126H68.5286V35.7499H66.4138V25.2363C66.4138 24.194 66.3874 23.1247 66.3369 22.0258H68.1946L68.3123 23.5731H68.3532C69.0549 22.4077 70.1244 21.8262 71.5591 21.8262C72.6814 21.8262 73.6162 22.282 74.3684 23.1912C75.1182 24.1029 75.4907 25.2979 75.4907 26.7812Z" fill="white"/>
<path d="M87.7229 27.9868C87.7229 29.135 87.3336 30.0713 86.5501 30.7957C85.6898 31.5842 84.4954 31.9784 82.9598 31.9784C81.5395 31.9784 80.4003 31.6975 79.5376 31.1358L80.0279 29.3322C80.9579 29.9063 81.9744 30.1921 83.0847 30.1921C83.8802 30.1921 84.5002 30.0097 84.9448 29.6426C85.387 29.273 85.6081 28.7802 85.6081 28.1642C85.6081 27.6172 85.4278 27.1516 85.0626 26.777C84.6973 26.4025 84.0893 26.0551 83.2409 25.7323C80.9315 24.8478 79.7779 23.5542 79.7779 21.8541C79.7779 20.7428 80.1817 19.8312 80.9915 19.1216C81.799 18.412 82.8756 18.0547 84.219 18.0547C85.4206 18.0547 86.418 18.2715 87.2134 18.6978L86.6847 20.4644C85.9421 20.0505 85.101 19.841 84.1614 19.841C83.4164 19.841 82.8372 20.0283 82.4214 20.4028C82.0706 20.7379 81.8927 21.1469 81.8927 21.6274C81.8927 22.1621 82.0922 22.6031 82.4983 22.9505C82.8492 23.2709 83.4885 23.6183 84.4161 23.9953C85.5504 24.4634 86.3843 25.0104 86.9202 25.6387C87.4537 26.267 87.7229 27.0505 87.7229 27.9868Z" fill="white"/>
<path d="M94.7068 23.6528H92.3781V28.386C92.3781 29.5909 92.789 30.1921 93.6133 30.1921C93.9882 30.1921 94.303 30.1601 94.5505 30.0935L94.6082 31.737C94.1949 31.8996 93.6445 31.9785 92.9668 31.9785C92.1329 31.9785 91.4793 31.7173 91.0082 31.1974C90.5396 30.675 90.3041 29.7979 90.3041 28.5684V23.6528H88.915V22.0266H90.3041V20.2427L92.3781 19.5996V22.0266H94.7068" fill="white"/>
<path d="M103.024 26.892C103.024 25.9927 102.834 25.2239 102.454 24.5784C102.015 23.7998 101.38 23.4105 100.558 23.4105C99.71 23.4105 99.0635 23.7998 98.6213 24.5784C98.2416 25.2239 98.0566 26.0075 98.0566 26.9339C98.0566 27.8333 98.2416 28.602 98.6213 29.2451C99.0779 30.0237 99.7172 30.413 100.541 30.413C101.347 30.413 101.981 30.0188 102.438 29.2254C102.829 28.57 103.024 27.7914 103.024 26.892ZM105.216 26.823C105.216 28.3211 104.8 29.5506 103.964 30.514C103.089 31.5045 101.928 31.9973 100.481 31.9973C99.0828 31.9973 97.9725 31.5218 97.1434 30.5732C96.3167 29.6246 95.9033 28.4271 95.9033 26.9832C95.9033 25.4703 96.3287 24.2334 97.1842 23.2725C98.0374 22.3066 99.1885 21.8262 100.635 21.8262C102.031 21.8262 103.156 22.3017 104.002 23.2503C104.812 24.1768 105.216 25.3644 105.216 26.823Z" fill="white"/>
<path d="M112.084 23.9328C111.875 23.8934 111.654 23.8737 111.418 23.8737C110.676 23.8737 110.099 24.162 109.695 24.7361C109.345 25.2461 109.169 25.8867 109.169 26.6604V31.778H107.057L107.073 25.0983C107.073 23.9723 107.047 22.9497 106.997 22.0258H108.837L108.914 23.8934H108.97C109.193 23.2528 109.546 22.7354 110.027 22.3485C110.498 22.0011 111.008 21.8262 111.555 21.8262C111.75 21.8262 111.928 21.841 112.084 21.8656" fill="white"/>
<path d="M119.517 25.8795C119.532 25.2389 119.395 24.6821 119.109 24.2139C118.743 23.6127 118.179 23.3096 117.424 23.3096C116.734 23.3096 116.172 23.6053 115.742 24.1942C115.391 24.6623 115.18 25.2241 115.119 25.8795H119.517ZM121.531 26.4413C121.531 26.8306 121.507 27.1559 121.457 27.4244H115.119C115.141 28.3878 115.449 29.1245 116.037 29.6321C116.571 30.088 117.263 30.3122 118.111 30.3122C119.049 30.3122 119.904 30.1594 120.676 29.8514L121.007 31.3569C120.106 31.756 119.044 31.9605 117.816 31.9605C116.343 31.9605 115.184 31.5146 114.343 30.6226C113.505 29.7356 113.082 28.5406 113.082 27.0425C113.082 25.5715 113.471 24.347 114.257 23.3712C115.076 22.3265 116.186 21.8066 117.58 21.8066C118.95 21.8066 119.991 22.3265 120.695 23.3712C121.255 24.1991 121.531 25.2241 121.531 26.4413Z" fill="white"/>
</svg>
