<svg width="116" height="35" viewBox="0 0 116 35" fill="none" xmlns="http://www.w3.org/2000/svg">
<path d="M111.777 34.9187H4.438C2.26273 34.9187 0.5 33.0831 0.5 30.818V4.33901C0.5 2.07384 2.26273 0.238281 4.438 0.238281H111.777C113.952 0.238281 115.715 2.07384 115.715 4.33901V30.818C115.715 33.0831 113.952 34.9187 111.777 34.9187Z" fill="black"/>
<path d="M40.3202 8.96471L39.8785 7.54623C39.7701 7.19589 39.6784 6.80495 39.5951 6.47169H39.5784C39.4972 6.80495 39.4117 7.20443 39.3138 7.54623L38.8804 8.96471H40.3202ZM38.7137 9.75727L38.2303 11.3894H37.1719L38.9721 5.63428H40.2785L42.1017 11.3894H41.0036L40.4952 9.75727" fill="white"/>
<path d="M43.6319 7.23193L44.2903 9.33829C44.407 9.70573 44.4883 10.039 44.5633 10.3808H44.5883C44.6633 10.039 44.755 9.71427 44.8633 9.33829L45.5134 7.23193H46.5865L45.0383 11.3891H44.032L42.5234 7.23193" fill="white"/>
<path d="M49.6777 9.35514C48.9526 9.34659 48.2608 9.5004 48.2608 10.1327C48.2608 10.5429 48.5192 10.7309 48.8442 10.7309C49.2589 10.7309 49.5526 10.4574 49.6506 10.1584C49.6777 10.0815 49.6777 10.0046 49.6777 9.92766V9.35514ZM50.6757 10.3891C50.6757 10.7651 50.6924 11.1325 50.7424 11.3867H49.8173L49.7443 10.9274H49.7172C49.4776 11.25 49.0526 11.4807 48.5192 11.4807C47.7024 11.4807 47.2461 10.8762 47.2461 10.2438C47.2461 9.20133 48.1525 8.66512 49.6506 8.67367V8.60531C49.6506 8.33187 49.5443 7.87898 48.8275 7.87898C48.4275 7.87898 48.0108 8.00715 47.7357 8.1866L47.5357 7.503C47.8358 7.31501 48.3608 7.1377 49.0026 7.1377C50.3007 7.1377 50.6757 7.98152 50.6757 8.89584" fill="white"/>
<path d="M52.1247 7.2322H53.1478V11.3894H52.1247V7.2322ZM52.6311 6.63405C52.2914 6.63405 52.0664 6.3777 52.0664 6.07008C52.0664 5.74537 52.2977 5.49756 52.6415 5.49756C52.9894 5.49756 53.2061 5.74537 53.2145 6.07008C53.2145 6.3777 52.9894 6.63405 52.6415 6.63405" fill="white"/>
<path d="M54.6211 11.3896H55.6462V5.31836H54.6211V11.3896Z" fill="white"/>
<path d="M59.2753 9.35514C58.5502 9.34659 57.8585 9.5004 57.8585 10.1327C57.8585 10.5429 58.1168 10.7309 58.4419 10.7309C58.8586 10.7309 59.1503 10.4574 59.2503 10.1584C59.2753 10.0815 59.2753 10.0046 59.2753 9.92766V9.35514ZM60.2734 10.3891C60.2734 10.7651 60.29 11.1325 60.34 11.3867H59.417L59.342 10.9274H59.317C59.0753 11.25 58.6502 11.4807 58.1168 11.4807C57.3021 11.4807 56.8438 10.8762 56.8438 10.2438C56.8438 9.20133 57.7522 8.66512 59.2503 8.67367V8.60531C59.2503 8.33187 59.142 7.87898 58.4252 7.87898C58.0252 7.87898 57.6084 8.00715 57.3355 8.1866L57.1355 7.503C57.4355 7.31501 57.9585 7.1377 58.6002 7.1377C59.8983 7.1377 60.2734 7.98152 60.2734 8.89584" fill="white"/>
<path d="M62.746 9.67206C62.746 9.75751 62.7543 9.84297 62.771 9.91987C62.8793 10.3471 63.2377 10.6547 63.6773 10.6547C64.3191 10.6547 64.7108 10.1335 64.7108 9.28967C64.7108 8.5548 64.3691 7.95664 63.6857 7.95664C63.269 7.95664 62.8877 8.26427 62.7793 8.7257C62.7626 8.8026 62.746 8.8966 62.746 8.99914V9.67206ZM61.7208 5.31836H62.746V7.80283H62.7626C63.0127 7.40122 63.4523 7.13846 64.0607 7.13846C65.0525 7.13846 65.7589 7.98228 65.7505 9.24695C65.7505 10.7402 64.8275 11.4836 63.9107 11.4836C63.3856 11.4836 62.921 11.2785 62.6293 10.7658H62.6126L62.5626 11.3896H61.6875C61.7042 11.1076 61.7208 10.6462 61.7208 10.2275" fill="white"/>
<path d="M66.957 11.3896H67.9801V5.31836H66.957V11.3896Z" fill="white"/>
<path d="M71.9681 8.87021C71.9764 8.48568 71.8097 7.85334 71.1284 7.85334C70.495 7.85334 70.2283 8.44295 70.1866 8.87021H71.9681ZM70.1866 9.60294C70.2116 10.3549 70.7867 10.6796 71.4367 10.6796C71.9097 10.6796 72.2431 10.6027 72.5598 10.4916L72.7098 11.2073C72.3598 11.3632 71.8764 11.4722 71.2951 11.4722C69.9782 11.4722 69.2031 10.6454 69.2031 9.37436C69.2031 8.22078 69.8865 7.1377 71.1867 7.1377C72.5015 7.1377 72.9349 8.24642 72.9349 9.16074C72.9349 9.35727 72.9182 9.51108 72.9015 9.60294" fill="white"/>
<path d="M78.0219 10.7223C78.6032 10.7223 79.0116 10.1413 79.0116 9.29746C79.0116 8.64803 78.7282 7.89607 78.0302 7.89607C77.3051 7.89607 77.0134 8.6224 77.0134 9.31455C77.0134 10.1156 77.4051 10.7223 78.0115 10.7223H78.0219ZM77.9885 11.4829C76.8467 11.4829 75.957 10.6796 75.957 9.34018C75.957 7.97297 76.8301 7.1377 78.0552 7.1377C79.2616 7.1377 80.0701 8.00715 80.0701 9.27182C80.0701 10.7993 79.0199 11.4829 77.9969 11.4829" fill="white"/>
<path d="M81.2734 8.46859C81.2734 7.99006 81.2589 7.58845 81.2422 7.22955H82.1319L82.1819 7.85334H82.2069C82.3903 7.52863 82.832 7.1377 83.5071 7.1377C84.2134 7.1377 84.9468 7.60554 84.9468 8.92148V11.3867H83.9217V9.04111C83.9217 8.44295 83.705 7.99006 83.1487 7.99006C82.7403 7.99006 82.4569 8.28914 82.3486 8.60531C82.3152 8.69076 82.2986 8.81893 82.2986 8.93857V11.3867H81.2734" fill="white"/>
<path d="M89.6656 6.16406V7.23006H90.6386V8.0162H89.6656V9.84271C89.6656 10.3554 89.7989 10.6118 90.1886 10.6118C90.3719 10.6118 90.4719 10.6032 90.5886 10.569L90.6053 11.3616C90.4553 11.4235 90.1802 11.4727 89.8635 11.4727C89.4822 11.4727 89.1738 11.3445 88.9821 11.133C88.7571 10.8937 88.6571 10.5092 88.6571 9.96234V8.0162H88.082V7.23006H88.6571V6.45459" fill="white"/>
<path d="M91.7773 5.31836H92.8025V7.79429H92.8191C92.9442 7.59775 93.1192 7.4354 93.3275 7.32431C93.5359 7.20682 93.7755 7.13846 94.0339 7.13846C94.7256 7.13846 95.4486 7.6063 95.4486 8.93933V11.3896H94.4256V9.05041C94.4256 8.45226 94.2089 7.99082 93.6422 7.99082C93.2442 7.99082 92.9608 8.26427 92.8441 8.58043C92.8108 8.67443 92.8025 8.78551 92.8025 8.8966V11.3896H91.7773" fill="white"/>
<path d="M99.4134 8.87021C99.4217 8.48568 99.255 7.85334 98.5716 7.85334C97.9382 7.85334 97.6736 8.44295 97.6319 8.87021H99.4134ZM97.6319 9.60294C97.6569 10.3549 98.2299 10.6796 98.88 10.6796C99.355 10.6796 99.6884 10.6027 100.003 10.4916L100.155 11.2073C99.8051 11.3632 99.3217 11.4722 98.7383 11.4722C97.4235 11.4722 96.6484 10.6454 96.6484 9.37436C96.6484 8.22078 97.3319 7.1377 98.6299 7.1377C99.9447 7.1377 100.378 8.24642 100.378 9.16074C100.378 9.35727 100.361 9.51108 100.345 9.60294" fill="white"/>
<path d="M25.9755 16.969C25.9485 14.1214 28.2488 12.735 28.355 12.6709C27.0528 10.7226 25.0338 10.4577 24.3232 10.4363C22.6293 10.2548 20.9853 11.4788 20.1227 11.4788C19.2413 11.4788 17.9099 10.4556 16.4785 10.4855C14.6324 10.5154 12.9072 11.6113 11.9612 13.3096C10.011 16.7768 11.4654 21.8696 13.3364 24.6724C14.274 26.0439 15.3659 27.5777 16.7973 27.5222C18.1975 27.4624 18.7204 26.6079 20.4102 26.6079C22.0855 26.6079 22.5772 27.5222 24.0378 27.488C25.5401 27.4624 26.486 26.1101 27.3882 24.7237C28.4717 23.1514 28.9051 21.6026 28.9218 21.5235C28.8863 21.5107 26.0047 20.3828 25.9755 16.969Z" fill="white"/>
<path d="M23.215 8.59503C23.9672 7.62944 24.486 6.3135 24.3402 4.98047C23.2505 5.03174 21.8878 5.7538 21.1023 6.69802C20.4084 7.53117 19.7854 8.89624 19.9479 10.178C21.1731 10.272 22.4295 9.54566 23.215 8.59503Z" fill="white"/>
<path d="M42.8737 22.4067L41.9069 19.3454C41.8048 19.0335 41.6131 18.2965 41.3298 17.1386H41.2964C41.1839 17.6364 41.0006 18.3734 40.7526 19.3454L39.8025 22.4067H42.8737ZM46.2158 27.2966H44.2635L43.1946 23.8529H39.4816L38.4627 27.2966H36.5625L40.2463 15.5728H42.5174" fill="white"/>
<path d="M53.8159 23.034C53.8159 22.2094 53.6346 21.5322 53.2721 20.9981C52.8762 20.4427 52.3449 20.1629 51.6781 20.1629C51.226 20.1629 50.8134 20.3188 50.4488 20.6243C50.0821 20.9341 49.8404 21.3357 49.7258 21.8356C49.6695 22.0663 49.6424 22.2564 49.6424 22.4059V23.8159C49.6424 24.4311 49.8258 24.9502 50.1925 25.3732C50.5613 25.7983 51.0384 26.0077 51.626 26.0077C52.3178 26.0077 52.8553 25.7364 53.2366 25.1895C53.6242 24.6447 53.8159 23.927 53.8159 23.034ZM55.6828 22.9635C55.6828 24.4012 55.3036 25.5398 54.5451 26.373C53.8659 27.1164 53.022 27.486 52.0177 27.486C50.9301 27.486 50.1508 27.0844 49.6758 26.2854H49.6424V30.7395H47.8089V21.6241C47.8089 20.7204 47.788 19.7933 47.7422 18.8405H49.3528L49.4549 20.1821H49.4903C50.1008 19.1716 51.028 18.6675 52.2719 18.6675C53.2429 18.6675 54.0576 19.0627 54.7056 19.851C55.3557 20.6414 55.6828 21.6775 55.6828 22.9635Z" fill="white"/>
<path d="M63.2982 23.034C63.2982 22.2094 63.1169 21.5322 62.7544 20.9981C62.3585 20.4427 61.8272 20.1629 61.1604 20.1629C60.7083 20.1629 60.2978 20.3188 59.9311 20.6243C59.5623 20.9341 59.3247 21.3357 59.2122 21.8356C59.1539 22.0663 59.1268 22.2564 59.1268 22.4059V23.8159C59.1268 24.4311 59.3081 24.9502 59.6748 25.3732C60.0436 25.7983 60.5207 26.0077 61.1104 26.0077C61.8001 26.0077 62.3376 25.7364 62.721 25.1895C63.1044 24.6447 63.2982 23.927 63.2982 23.034ZM65.163 22.9635C65.163 24.4012 64.7859 25.5398 64.0274 26.373C63.3482 27.1164 62.5064 27.486 61.5 27.486C60.4145 27.486 59.6352 27.0844 59.1581 26.2854H59.1268V30.7395H57.2932V21.6241C57.2932 20.7204 57.2703 19.7933 57.2266 18.8405H58.8372L58.9393 20.1821H58.9747C59.5831 19.1716 60.5103 18.6675 61.7542 18.6675C62.7273 18.6675 63.5378 19.0627 64.19 19.851C64.84 20.6414 65.163 21.6775 65.163 22.9635Z" fill="white"/>
<path d="M75.7686 24.0087C75.7686 25.0042 75.4311 25.816 74.7518 26.4441C74.0059 27.1277 72.9703 27.4695 71.6389 27.4695C70.4075 27.4695 69.4199 27.226 68.6719 26.7389L69.0969 25.1751C69.9033 25.6729 70.7846 25.9207 71.7473 25.9207C72.4369 25.9207 72.9745 25.7626 73.36 25.4443C73.7434 25.1239 73.935 24.6966 73.935 24.1625C73.935 23.6883 73.7788 23.2845 73.4621 22.9598C73.1454 22.6351 72.6182 22.3339 71.8827 22.0541C69.8804 21.2871 68.8802 20.1656 68.8802 18.6916C68.8802 17.7281 69.2303 16.9377 69.9325 16.3225C70.6325 15.7072 71.566 15.3975 72.7307 15.3975C73.7725 15.3975 74.6372 15.5855 75.3269 15.955L74.8685 17.4867C74.2247 17.1278 73.4954 16.9463 72.6807 16.9463C72.0348 16.9463 71.5327 17.1086 71.1722 17.4333C70.868 17.7239 70.7138 18.0785 70.7138 18.495C70.7138 18.9586 70.8867 19.341 71.2389 19.6422C71.5431 19.9199 72.0973 20.2211 72.9016 20.548C73.885 20.9539 74.6081 21.4281 75.0727 21.9729C75.5353 22.5176 75.7686 23.197 75.7686 24.0087Z" fill="white"/>
<path d="M81.8223 20.2505H79.8032V24.3542C79.8032 25.3989 80.1595 25.9201 80.8742 25.9201C81.1993 25.9201 81.4722 25.8924 81.6868 25.8347L81.7368 27.2596C81.3785 27.4006 80.9013 27.4689 80.3137 27.4689C79.5907 27.4689 79.024 27.2425 78.6156 26.7917C78.2093 26.3388 78.0051 25.5783 78.0051 24.5123V20.2505H76.8008V18.8405H78.0051V17.2939L79.8032 16.7363V18.8405H81.8223" fill="white"/>
<path d="M89.0331 23.0596C89.0331 22.2799 88.8685 21.6134 88.5393 21.0537C88.158 20.3786 87.6079 20.0411 86.8953 20.0411C86.1598 20.0411 85.5993 20.3786 85.2159 21.0537C84.8867 21.6134 84.7263 22.2927 84.7263 23.096C84.7263 23.8757 84.8867 24.5422 85.2159 25.0998C85.6118 25.7748 86.166 26.1124 86.8807 26.1124C87.5787 26.1124 88.1288 25.7706 88.5247 25.0827C88.8643 24.5144 89.0331 23.8394 89.0331 23.0596ZM90.9333 22.9998C90.9333 24.2987 90.5729 25.3647 89.8478 26.1999C89.0893 27.0587 88.083 27.486 86.8286 27.486C85.616 27.486 84.6534 27.0737 83.9345 26.2512C83.2178 25.4288 82.8594 24.3905 82.8594 23.1387C82.8594 21.827 83.2282 20.7546 83.9699 19.9215C84.7096 19.0841 85.7077 18.6675 86.962 18.6675C88.1726 18.6675 89.1477 19.0798 89.8811 19.9022C90.5833 20.7055 90.9333 21.7352 90.9333 22.9998Z" fill="white"/>
<path d="M96.8914 20.494C96.7102 20.4598 96.5185 20.4427 96.3143 20.4427C95.6705 20.4427 95.1704 20.6927 94.8204 21.1904C94.5161 21.6326 94.364 22.188 94.364 22.8588V27.2958H92.5326L92.5471 21.5044C92.5471 20.5282 92.5242 19.6416 92.4805 18.8405H94.0765L94.1432 20.4598H94.1911C94.3849 19.9044 94.6912 19.4558 95.1079 19.1204C95.5163 18.8192 95.958 18.6675 96.4331 18.6675C96.6018 18.6675 96.756 18.6803 96.8914 18.7017" fill="white"/>
<path d="M103.334 22.1821C103.346 21.6267 103.228 21.1439 102.98 20.738C102.663 20.2168 102.173 19.954 101.519 19.954C100.921 19.954 100.433 20.2104 100.06 20.7209C99.7562 21.1268 99.5729 21.6139 99.5208 22.1821H103.334ZM105.08 22.6692C105.08 23.0067 105.059 23.2887 105.015 23.5216H99.5208C99.5396 24.3568 99.8063 24.9956 100.317 25.4357C100.779 25.8309 101.379 26.0253 102.115 26.0253C102.927 26.0253 103.669 25.8928 104.338 25.6258L104.626 26.931C103.844 27.2771 102.923 27.4544 101.859 27.4544C100.581 27.4544 99.5771 27.0678 98.8478 26.2944C98.1206 25.5254 97.7539 24.4893 97.7539 23.1904C97.7539 21.9151 98.0914 20.8534 98.7728 20.0074C99.4833 19.1016 100.446 18.6509 101.654 18.6509C102.842 18.6509 103.744 19.1016 104.355 20.0074C104.84 20.7252 105.08 21.6139 105.08 22.6692Z" fill="white"/>
</svg>
