<svg width="105" height="53" viewBox="0 0 105 53" fill="none" xmlns="http://www.w3.org/2000/svg">
<path d="M100.91 22.082C98.8926 22.082 97.2336 23.7498 97.2336 25.758C97.2336 27.775 98.9013 29.434 100.91 29.434C102.927 29.434 104.586 27.7663 104.586 25.758C104.594 23.7323 102.935 22.082 100.91 22.082Z" fill="white"/>
<path d="M88.0565 2.86377V11.5866C87.4016 10.7833 85.2799 9.264 82.5644 9.264C77.0198 9.264 72.6802 13.752 72.6802 19.2966C72.6802 24.8411 77.0111 29.3379 82.5644 29.3379C85.3934 29.3379 87.6025 27.7225 88.205 26.9192H88.2573V29.0934H94.3083V2.86377H88.0565ZM82.9136 23.8457C80.4426 23.8457 78.4256 21.8287 78.4256 19.3577C78.4256 16.8867 80.4426 14.8697 82.9136 14.8697C85.3934 14.8697 87.4016 16.8867 87.4016 19.3577C87.4016 21.82 85.3847 23.8457 82.9136 23.8457Z" fill="white"/>
<path d="M23.9765 9.62207C21.6539 9.62207 19.0344 10.8794 17.8294 12.844H17.777V10.1809H11.7348V29.1371H17.9779V19.0522C17.9779 16.9304 19.0431 14.8697 21.4618 14.8697C24.0288 14.8697 24.6313 16.4327 24.6313 18.3012V20.2658V29.1371H30.8744V17.1836C30.8395 14.5117 30.4815 9.62207 23.9765 9.62207Z" fill="white"/>
<path d="M4.42607 0C2.3043 0 0.540527 1.71139 0.540527 3.88554C0.540527 6.00731 2.25191 7.77109 4.42607 7.77109C6.54784 7.77109 8.31162 6.0597 8.31162 3.88554C8.30288 1.76378 6.53911 0 4.42607 0Z" fill="white"/>
<path d="M43.5346 9.31641C37.99 9.31641 33.6505 13.8044 33.6505 19.349C33.6505 24.8935 37.9813 29.3815 43.5346 29.3815C46.512 29.3815 49.3847 28.0718 51.2445 26.0024L47.263 22.3264C46.4597 23.2345 45.246 23.8457 43.8838 23.8457C41.4128 23.8457 39.3958 21.8287 39.3958 19.3577C39.3958 16.8867 41.4128 14.8697 43.8838 14.8697C45.246 14.8697 46.3985 15.4722 47.263 16.389L51.2445 12.713C49.3411 10.6261 46.512 9.31641 43.5346 9.31641Z" fill="white"/>
<path d="M73.0382 10.1812H65.6339L59.8798 16.6338V2.9165H53.6367V29.1286H57.3127H59.8274V22.0823L66.0705 29.1461H73.5359L64.7083 19.3668L73.0382 10.1812Z" fill="white"/>
<path d="M1.31793 10.1812V24.8851L7.51734 29.1286V10.1812" fill="white"/>
<path d="M1.95153 48.4341V36.5341H3.92353V48.4341H1.95153ZM3.58353 43.4701V41.6681H8.56453V43.4701H3.58353ZM3.58353 38.3361V36.5341H9.34653V38.3361H3.58353ZM14.735 48.6381C13.885 48.6381 13.1257 48.4511 12.457 48.0771C11.7997 47.6917 11.284 47.1647 10.91 46.4961C10.536 45.8274 10.349 45.0567 10.349 44.1841C10.349 43.3114 10.5303 42.5407 10.893 41.8721C11.267 41.2034 11.7827 40.6821 12.44 40.3081C13.0973 39.9227 13.851 39.7301 14.701 39.7301C15.551 39.7301 16.3047 39.9227 16.962 40.3081C17.6193 40.6821 18.1293 41.2034 18.492 41.8721C18.866 42.5407 19.053 43.3114 19.053 44.1841C19.053 45.0567 18.8717 45.8274 18.509 46.4961C18.1463 47.1647 17.6363 47.6917 16.979 48.0771C16.3217 48.4511 15.5737 48.6381 14.735 48.6381ZM14.735 46.8871C15.1997 46.8871 15.6133 46.7737 15.976 46.5471C16.3387 46.3091 16.622 45.9917 16.826 45.5951C17.03 45.1871 17.132 44.7167 17.132 44.1841C17.132 43.6514 17.0243 43.1867 16.809 42.7901C16.605 42.3821 16.3217 42.0647 15.959 41.8381C15.5963 41.6001 15.177 41.4811 14.701 41.4811C14.225 41.4811 13.8057 41.5944 13.443 41.8211C13.0803 42.0477 12.797 42.3651 12.593 42.7731C12.389 43.1811 12.287 43.6514 12.287 44.1841C12.287 44.7167 12.389 45.1871 12.593 45.5951C12.8083 45.9917 13.0973 46.3091 13.46 46.5471C13.834 46.7737 14.259 46.8871 14.735 46.8871ZM21.9609 43.9121C21.9609 42.9941 22.1366 42.2404 22.4879 41.6511C22.8393 41.0617 23.2926 40.6254 23.8479 40.3421C24.4146 40.0474 25.0039 39.9001 25.6159 39.9001V41.7191C25.0946 41.7191 24.6016 41.7927 24.1369 41.9401C23.6836 42.0761 23.3153 42.3027 23.0319 42.6201C22.7486 42.9374 22.6069 43.3567 22.6069 43.8781L21.9609 43.9121ZM20.7029 48.4341V39.9341H22.6069V48.4341H20.7029ZM36.1303 48.4341L36.0453 46.8361V44.0651C36.0453 43.4871 35.983 43.0054 35.8583 42.6201C35.7336 42.2347 35.5353 41.9401 35.2633 41.7361C35.0026 41.5321 34.657 41.4301 34.2263 41.4301C33.8296 41.4301 33.4783 41.5151 33.1723 41.6851C32.8663 41.8551 32.6113 42.1157 32.4073 42.4671L30.6733 41.8551C30.866 41.4811 31.1153 41.1297 31.4213 40.8011C31.7273 40.4724 32.1126 40.2117 32.5773 40.0191C33.0533 39.8264 33.6143 39.7301 34.2603 39.7301C35.0876 39.7301 35.7733 39.8831 36.3173 40.1891C36.8726 40.4951 37.2863 40.9484 37.5583 41.5491C37.8303 42.1497 37.9663 42.8921 37.9663 43.7761L37.9153 48.4341H36.1303ZM33.7163 48.6381C32.6963 48.6381 31.903 48.4114 31.3363 47.9581C30.781 47.5047 30.5033 46.8644 30.5033 46.0371C30.5033 45.1531 30.798 44.4787 31.3873 44.0141C31.988 43.5494 32.821 43.3171 33.8863 43.3171H36.1643V44.7791H34.4983C33.739 44.7791 33.2063 44.8867 32.9003 45.1021C32.5943 45.3061 32.4413 45.6007 32.4413 45.9861C32.4413 46.3147 32.5716 46.5754 32.8323 46.7681C33.1043 46.9494 33.4783 47.0401 33.9543 47.0401C34.3736 47.0401 34.7363 46.9437 35.0423 46.7511C35.3596 46.5471 35.6033 46.2864 35.7733 45.9691C35.9546 45.6404 36.0453 45.2891 36.0453 44.9151H36.7423C36.7423 46.0711 36.493 46.9834 35.9943 47.6521C35.507 48.3094 34.7476 48.6381 33.7163 48.6381ZM41.1523 43.9121C41.1523 42.9941 41.328 42.2404 41.6793 41.6511C42.0307 41.0617 42.484 40.6254 43.0393 40.3421C43.606 40.0474 44.1953 39.9001 44.8073 39.9001V41.7191C44.286 41.7191 43.793 41.7927 43.3283 41.9401C42.875 42.0761 42.5067 42.3027 42.2233 42.6201C41.94 42.9374 41.7983 43.3567 41.7983 43.8781L41.1523 43.9121ZM39.8943 48.4341V39.9341H41.7983V48.4341H39.8943ZM49.4531 48.6381C48.5578 48.6381 47.8721 48.4171 47.3961 47.9751C46.9314 47.5217 46.6991 46.8757 46.6991 46.0371V37.2821H48.5861V45.6801C48.5861 46.0767 48.6768 46.3771 48.8581 46.5811C49.0508 46.7851 49.3284 46.8871 49.6911 46.8871C49.8044 46.8871 49.9291 46.8644 50.0651 46.8191C50.2011 46.7737 50.3541 46.6887 50.5241 46.5641L51.2211 48.0091C50.9264 48.2131 50.6318 48.3661 50.3371 48.4681C50.0424 48.5814 49.7478 48.6381 49.4531 48.6381ZM45.2881 41.5661V39.9341H50.8811V41.5661H45.2881ZM52.8629 48.4341L52.8799 39.9341H54.7669L54.7499 48.4341H52.8629ZM53.8149 38.3191C53.5089 38.3191 53.2426 38.2114 53.0159 37.9961C52.8006 37.7694 52.6929 37.5031 52.6929 37.1971C52.6929 36.8911 52.8006 36.6304 53.0159 36.4151C53.2426 36.1997 53.5089 36.0921 53.8149 36.0921C54.1209 36.0921 54.3816 36.1997 54.5969 36.4151C54.8236 36.6304 54.9369 36.8911 54.9369 37.1971C54.9369 37.5031 54.8236 37.7694 54.5969 37.9961C54.3816 38.2114 54.1209 38.3191 53.8149 38.3191ZM60.0879 48.6381C59.5213 48.6381 58.9999 48.5531 58.5239 48.3831C58.0479 48.2131 57.6399 47.9751 57.2999 47.6691C56.9599 47.3517 56.6993 46.9834 56.5179 46.5641L58.1669 45.8331C58.3369 46.1504 58.5863 46.4167 58.9149 46.6321C59.2549 46.8474 59.6289 46.9551 60.0369 46.9551C60.4789 46.9551 60.8303 46.8814 61.0909 46.7341C61.3629 46.5754 61.4989 46.3601 61.4989 46.0881C61.4989 45.8274 61.3969 45.6291 61.1929 45.4931C60.9889 45.3457 60.6999 45.2267 60.3259 45.1361L59.5269 44.9151C58.7223 44.7111 58.0933 44.3881 57.6399 43.9461C57.1866 43.4927 56.9599 42.9771 56.9599 42.3991C56.9599 41.5491 57.2319 40.8917 57.7759 40.4271C58.3313 39.9624 59.1246 39.7301 60.1559 39.7301C60.6773 39.7301 61.1533 39.8094 61.5839 39.9681C62.0259 40.1154 62.4056 40.3307 62.7229 40.6141C63.0403 40.8861 63.2613 41.2091 63.3859 41.5831L61.8049 42.2971C61.6916 42.0137 61.4763 41.7984 61.1589 41.6511C60.8416 41.4924 60.4903 41.4131 60.1049 41.4131C59.7196 41.4131 59.4193 41.4981 59.2039 41.6681C58.9886 41.8267 58.8809 42.0534 58.8809 42.3481C58.8809 42.5181 58.9773 42.6767 59.1699 42.8241C59.3626 42.9601 59.6403 43.0734 60.0029 43.1641L61.0059 43.4021C61.5613 43.5381 62.0146 43.7534 62.3659 44.0481C62.7173 44.3314 62.9779 44.6544 63.1479 45.0171C63.3179 45.3684 63.4029 45.7254 63.4029 46.0881C63.4029 46.5981 63.2556 47.0457 62.9609 47.4311C62.6776 47.8164 62.2866 48.1167 61.7879 48.3321C61.2893 48.5361 60.7226 48.6381 60.0879 48.6381ZM68.2959 48.6381C67.4006 48.6381 66.7149 48.4171 66.2389 47.9751C65.7742 47.5217 65.5419 46.8757 65.5419 46.0371V37.2821H67.4289V45.6801C67.4289 46.0767 67.5196 46.3771 67.7009 46.5811C67.8936 46.7851 68.1712 46.8871 68.5339 46.8871C68.6472 46.8871 68.7719 46.8644 68.9079 46.8191C69.0439 46.7737 69.1969 46.6887 69.3669 46.5641L70.0639 48.0091C69.7692 48.2131 69.4746 48.3661 69.1799 48.4681C68.8852 48.5814 68.5906 48.6381 68.2959 48.6381ZM64.1309 41.5661V39.9341H69.7239V41.5661H64.1309ZM74.6807 48.6381C74.114 48.6381 73.5927 48.5531 73.1167 48.3831C72.6407 48.2131 72.2327 47.9751 71.8927 47.6691C71.5527 47.3517 71.292 46.9834 71.1107 46.5641L72.7597 45.8331C72.9297 46.1504 73.179 46.4167 73.5077 46.6321C73.8477 46.8474 74.2217 46.9551 74.6297 46.9551C75.0717 46.9551 75.423 46.8814 75.6837 46.7341C75.9557 46.5754 76.0917 46.3601 76.0917 46.0881C76.0917 45.8274 75.9897 45.6291 75.7857 45.4931C75.5817 45.3457 75.2927 45.2267 74.9187 45.1361L74.1197 44.9151C73.315 44.7111 72.686 44.3881 72.2327 43.9461C71.7794 43.4927 71.5527 42.9771 71.5527 42.3991C71.5527 41.5491 71.8247 40.8917 72.3687 40.4271C72.924 39.9624 73.7174 39.7301 74.7487 39.7301C75.27 39.7301 75.746 39.8094 76.1767 39.9681C76.6187 40.1154 76.9984 40.3307 77.3157 40.6141C77.633 40.8861 77.854 41.2091 77.9787 41.5831L76.3977 42.2971C76.2844 42.0137 76.069 41.7984 75.7517 41.6511C75.4344 41.4924 75.083 41.4131 74.6977 41.4131C74.3124 41.4131 74.012 41.4981 73.7967 41.6681C73.5814 41.8267 73.4737 42.0534 73.4737 42.3481C73.4737 42.5181 73.57 42.6767 73.7627 42.8241C73.9554 42.9601 74.233 43.0734 74.5957 43.1641L75.5987 43.4021C76.154 43.5381 76.6074 43.7534 76.9587 44.0481C77.31 44.3314 77.5707 44.6544 77.7407 45.0171C77.9107 45.3684 77.9957 45.7254 77.9957 46.0881C77.9957 46.5981 77.8484 47.0457 77.5537 47.4311C77.2704 47.8164 76.8794 48.1167 76.3807 48.3321C75.882 48.5361 75.3154 48.6381 74.6807 48.6381Z" fill="white"/>
</svg>
