<svg width="51" height="50" viewBox="0 0 51 50" fill="none" xmlns="http://www.w3.org/2000/svg">
<g id="belgium" clip-path="url(#clip0_13117_123494)">
<path id="Vector" d="M34.1956 1.55498C31.4873 0.550098 28.558 0 25.5 0C22.442 0 19.5127 0.550098 16.8044 1.55498L14.6305 25L16.8044 48.445C19.5127 49.45 22.442 50 25.5 50C28.558 50 31.4873 49.45 34.1956 48.445L36.3696 25L34.1956 1.55498Z" fill="#FFDA44"/>
<path id="Vector_2" d="M50.5 25C50.5 14.251 43.7156 5.08728 34.1956 1.55505V48.4452C43.7156 44.9127 50.5 35.7492 50.5 25Z" fill="#D80027"/>
<path id="Vector_3" d="M0.5 25C0.5 35.7492 7.28437 44.9127 16.8044 48.4451V1.55505C7.28437 5.08728 0.5 14.251 0.5 25Z" fill="black"/>
</g>
<defs>
<clipPath id="clip0_13117_123494">
<rect width="50" height="50" fill="white" transform="translate(0.5)"/>
</clipPath>
</defs>
</svg>
