<svg width="51" height="50" viewBox="0 0 51 50" fill="none" xmlns="http://www.w3.org/2000/svg">
<g clip-path="url(#clip0_13117_123498)">
<path d="M25.75 50C39.5571 50 50.75 38.8071 50.75 25C50.75 11.1929 39.5571 0 25.75 0C11.9429 0 0.75 11.1929 0.75 25C0.75 38.8071 11.9429 50 25.75 50Z" fill="#F0F0F0"/>
<path d="M20.3154 21.7392H50.5385C48.9405 9.47285 38.4519 0 25.7501 0C23.8834 0 22.0653 0.206348 20.3153 0.594238V21.7392H20.3154Z" fill="#D80027"/>
<path d="M13.7935 21.7391V3.03979C6.92895 6.7853 2.0147 13.6555 0.96167 21.7392H13.7935V21.7391Z" fill="#D80027"/>
<path d="M13.7934 28.2609H0.96167C2.0147 36.3446 6.92895 43.2148 13.7935 46.9602L13.7934 28.2609Z" fill="#D80027"/>
<path d="M20.3153 28.261V49.4058C22.0653 49.7937 23.8834 50 25.7501 50C38.4519 50 48.9405 40.5272 50.5385 28.2609H20.3153V28.261Z" fill="#D80027"/>
</g>
<defs>
<clipPath id="clip0_13117_123498">
<rect width="50" height="50" fill="white" transform="translate(0.75)"/>
</clipPath>
</defs>
</svg>
