<svg width="1446" height="50" viewBox="0 0 1446 50" fill="none" xmlns="http://www.w3.org/2000/svg">
<path d="M1395.5 38.0005C1396.3 38.0005 1429.17 38.3339 1445.5 38.5005V49H1366.5C1366.5 49.0002 1366.5 49.0004 1366.5 49.0005H1314.5C1314.5 49.0004 1314.5 49.0002 1314.5 49H501.001C501.001 49.0002 501 49.0004 501 49.0005C500.766 49.0229 500.471 49.0238 500.112 49H0V20.5H84V30H106C114.333 27.1667 132.7 21 139.5 19C148 16.5 151 16 156.5 20.5C162 25 180 24.5 185.5 24.5C189.9 24.5 211.333 21.8333 221.5 20.5V30H232.5C234.333 30 239.3 29.8 244.5 29C249.7 28.2 263 23 269 20.5V14.5L287.5 20.5C303.667 24.1667 337.2 31.8 342 33C348 34.5 353 32 357.5 28C361.1 24.8 376.667 17 384 13.5H420.5L440.5 24.5005C477.821 43.534 495.119 48.6683 500.112 49H501.001C510.201 42.6 530.167 33.3338 539 29.5005H573.5C579.5 26.5005 590 23.5005 598.5 21.5005C607 19.5005 643.5 20.5005 653 20.5005C660.6 20.5005 661.833 19.5005 661.5 19.0005C662.7 12.6005 694.667 12.3339 710.5 13.0005H735H763C771.8 13.0005 808.333 4.33388 825.5 0.000545502L866.5 30.0005L893.5 20.5005C896.833 22.5005 904.2 26.9005 907 28.5005C909.8 30.1005 917.167 30.1672 920.5 30.0005H957C963.4 30.0005 964.333 29.0005 964 28.5005C963.833 26.5005 964.6 22.4005 969 22.0005L969.12 21.9896C974.959 21.4585 1007.28 18.5182 1047 21.0005C1079 23.0005 1116.33 33.1672 1131 38.0005H1153.5C1155.9 38.0005 1171.5 35.6672 1179 34.5005C1189 32.6672 1211.1 29.2005 1219.5 30.0005C1227.9 30.8005 1233.67 29.6672 1235.5 29.0005C1238.33 27.0005 1247.6 24.4005 1262 30.0005C1276.4 35.6003 1303 44.9997 1314.5 49H1366.5C1386.5 39.0005 1394.5 38.0005 1395.5 38.0005Z" fill="#F8F8F8"/>
</svg>
