<svg width="1440" height="49" viewBox="0 0 1440 49" fill="none" xmlns="http://www.w3.org/2000/svg">
<path d="M49.8098 10.9751C49.0128 10.9751 16.2712 10.643 0 10.477V0.0175112H78.6983C78.6987 0.0173296 78.699 0.0171479 78.6994 0.0169662H130.502C130.502 0.0171479 130.503 0.0173296 130.503 0.0175112H940.905C940.906 0.0173296 940.906 0.0171479 940.906 0.0169662C941.14 -0.00527771 941.434 -0.00621395 941.791 0.0175112H1440V28.4091H1356.32V18.9452H1334.4C1326.1 21.7678 1307.8 27.911 1301.03 29.9034C1292.56 32.3939 1289.57 32.892 1284.1 28.4091C1278.62 23.9262 1260.68 24.4243 1255.21 24.4243C1250.82 24.4243 1229.47 27.0808 1219.34 28.4091V18.9452H1208.38C1206.56 18.9452 1201.61 19.1445 1196.43 19.9414C1191.25 20.7384 1178 25.9186 1172.02 28.4091V34.3862L1153.59 28.4091C1137.49 24.7564 1104.08 17.1521 1099.3 15.9566C1093.32 14.4623 1088.34 16.9528 1083.86 20.9376C1080.27 24.1254 1064.77 31.8958 1057.46 35.3824H1021.1L1001.18 24.4237C963.997 5.4627 946.765 0.347964 941.791 0.0175112H940.905C931.74 6.39314 911.85 15.6241 903.051 19.4428H868.682C862.705 22.4314 852.245 25.4199 843.777 27.4123C835.31 29.4047 798.948 28.4085 789.485 28.4085C781.914 28.4085 780.685 29.4047 781.017 29.9028C779.822 36.2785 747.976 36.5441 732.203 35.88H707.797H679.903C671.137 35.88 634.742 44.5137 617.641 48.8305L576.797 18.9447L549.9 28.4085C546.579 26.4161 539.24 22.0329 536.451 20.439C533.662 18.8451 526.323 18.7786 523.002 18.9447H486.641C480.266 18.9447 479.336 19.9409 479.668 20.439C479.834 22.4314 479.07 26.5158 474.687 26.9142L474.567 26.9251C468.751 27.4542 436.55 30.3833 396.984 27.9104C365.105 25.918 327.914 15.7901 313.303 10.9751H290.889C288.498 10.9751 272.957 13.2996 265.486 14.4618C255.524 16.2882 233.508 19.7416 225.14 18.9447C216.772 18.1477 211.027 19.2767 209.201 19.9409C206.378 21.9333 197.147 24.5234 182.802 18.9447C168.457 13.3662 141.96 4.0026 130.503 0.0175112H78.6983C58.7752 9.97895 50.8059 10.9751 49.8098 10.9751Z" fill="#f9fbfa"/>
</svg>
