<svg width="1446" height="50" viewBox="0 0 1446 50" fill="none" xmlns="http://www.w3.org/2000/svg">
<path d="M50 11.017C49.2 11.017 16.3333 10.6837 0 10.517V0.0175781H78.9989C78.9993 0.0173958 78.9996 0.0172134 79 0.017031H131C131.001 0.0172134 131.001 0.0173958 131.002 0.0175781H944.499C944.499 0.0173958 944.5 0.0172134 944.5 0.017031C944.734 -0.00529787 945.029 -0.00623769 945.388 0.0175781H1445.5V28.5176H1361.5V19.0176H1339.5C1331.17 21.8509 1312.8 28.0176 1306 30.0176C1297.5 32.5176 1294.5 33.0176 1289 28.5176C1283.5 24.0176 1265.5 24.5176 1260 24.5176C1255.6 24.5176 1234.17 27.1842 1224 28.5176V19.0176H1213C1211.17 19.0176 1206.2 19.2176 1201 20.0176C1195.8 20.8176 1182.5 26.0176 1176.5 28.5176V34.5176L1158 28.5176C1141.83 24.8509 1108.3 17.2176 1103.5 16.0176C1097.5 14.5176 1092.5 17.0176 1088 21.0176C1084.4 24.2176 1068.83 32.0176 1061.5 35.5176H1025L1005 24.517C967.679 5.48356 950.381 0.349293 945.388 0.0175781H944.499C935.299 6.41756 915.333 15.6838 906.5 19.517H872C866 22.517 855.5 25.517 847 27.517C838.5 29.517 802 28.517 792.5 28.517C784.9 28.517 783.667 29.517 784 30.017C782.8 36.417 750.833 36.6837 735 36.017H710.5H682.5C673.7 36.017 637.167 44.6837 620 49.017L579 19.017L552 28.517C548.667 26.517 541.3 22.117 538.5 20.517C535.7 18.917 528.333 18.8504 525 19.017H488.5C482.1 19.017 481.167 20.017 481.5 20.517C481.667 22.517 480.9 26.617 476.5 27.017L476.38 27.028C470.541 27.5591 438.218 30.4994 398.5 28.017C366.5 26.017 329.167 15.8504 314.5 11.017H292C289.6 11.017 274 13.3504 266.5 14.517C256.5 16.3504 234.4 19.817 226 19.017C217.6 18.217 211.833 19.3504 210 20.017C207.167 22.017 197.9 24.617 183.5 19.017C169.101 13.4173 142.502 4.01789 131.002 0.0175781H78.9989C58.9997 10.0171 51 11.017 50 11.017Z" fill="#F8F8F8"/>
</svg>
