<svg width="51" height="50" viewBox="0 0 51 50" fill="none" xmlns="http://www.w3.org/2000/svg">
<g id="germany" clip-path="url(#clip0_13117_123457)">
<path id="Vector" d="M2.05499 33.6956C5.58732 43.2155 14.7509 50 25.5 50C36.2491 50 45.4127 43.2155 48.945 33.6956L25.5 31.5217L2.05499 33.6956Z" fill="#FFDA44"/>
<path id="Vector_2" d="M25.5 0C14.7509 0 5.58732 6.78438 2.05499 16.3044L25.5 18.4782L48.945 16.3043C45.4127 6.78437 36.2491 0 25.5 0Z" fill="black"/>
<path id="Vector_3" d="M2.05498 16.3044C1.0501 19.0127 0.5 21.942 0.5 25C0.5 28.0581 1.0501 30.9874 2.05498 33.6957H48.9451C49.95 30.9874 50.5 28.0581 50.5 25C50.5 21.942 49.95 19.0127 48.945 16.3044H2.05498Z" fill="#D80027"/>
</g>
<defs>
<clipPath id="clip0_13117_123457">
<rect width="50" height="50" fill="white" transform="translate(0.5)"/>
</clipPath>
</defs>
</svg>
