<svg width="34" height="34" viewBox="0 0 34 34" fill="none" xmlns="http://www.w3.org/2000/svg">
<path d="M33.0234 25.2914V9.54792C33.0234 4.77634 29.1553 0.908203 24.3837 0.908203L8.64022 0.908203C3.86864 0.908203 0.00050354 4.77634 0.00050354 9.54792V25.2914C0.00050354 30.063 3.86864 33.9311 8.64022 33.9311H24.3837C29.1553 33.9311 33.0234 30.063 33.0234 25.2914Z" fill="white"/>
<path d="M21.6372 11.1953C21.016 11.1953 20.5078 11.7035 20.5078 12.3247C20.5078 12.9458 21.016 13.4654 21.6372 13.4654C22.2583 13.4654 22.7779 12.9571 22.7779 12.3247C22.7779 11.6922 22.2696 11.1953 21.6372 11.1953Z" fill="black"/>
<path d="M16.5882 12.6543C13.9568 12.6543 11.8223 14.7888 11.8223 17.4203C11.8223 20.0517 13.9568 22.1862 16.5882 22.1862C19.2197 22.1862 21.3542 20.0517 21.3542 17.4203C21.3542 14.7888 19.2197 12.6543 16.5882 12.6543ZM16.5882 20.4809C14.9055 20.4809 13.5389 19.1143 13.5389 17.4316C13.5389 15.7488 14.9055 14.3822 16.5882 14.3822C18.271 14.3822 19.6375 15.7488 19.6375 17.4316C19.6375 19.1143 18.271 20.4809 16.5882 20.4809Z" fill="black"/>
<path d="M20.3732 27.0977H12.6483C9.44089 27.0977 6.83203 24.4889 6.83203 21.2814V13.5565C6.83203 10.3491 9.44089 7.74023 12.6483 7.74023H20.3732C23.5807 7.74023 26.1895 10.3491 26.1895 13.5565V21.2814C26.1895 24.4889 23.5807 27.0977 20.3732 27.0977ZM12.6483 9.55853C10.446 9.55853 8.65033 11.3542 8.65033 13.5565V21.2814C8.65033 23.4837 10.446 25.2794 12.6483 25.2794H20.3732C22.5755 25.2794 24.3712 23.4837 24.3712 21.2814V13.5565C24.3712 11.3542 22.5755 9.55853 20.3732 9.55853H12.6483Z" fill="black"/>
</svg>
