<svg width="60" height="60" viewBox="0 0 60 60" fill="none" xmlns="http://www.w3.org/2000/svg">
<g id="Outline / Like / Hearts">
<path id="Vector (Stroke)" fill-rule="evenodd" clip-rule="evenodd" d="M14.0899 10.3869C9.95569 12.3629 6.875 17.0977 6.875 22.7977C6.875 33.365 14.3719 39.428 21.4681 45.1669C22.1845 45.7463 22.8968 46.3223 23.5969 46.8994C24.9124 47.9837 26.0856 48.9351 27.2156 49.6256C28.3485 50.3177 29.2476 50.6252 30 50.6252C30.8095 50.6252 31.7223 50.2789 32.8172 49.604C29.4122 46.9844 25.625 43.3525 25.625 37.649C25.625 33.7159 27.9665 30.3297 31.3076 28.878C34.3312 27.5643 37.9775 27.9016 41.2497 30.4106C43.2836 28.8499 45.4791 28.1145 47.6184 28.1253C49.2303 28.1335 50.7468 28.5659 52.0657 29.3141C52.7382 27.3477 53.125 25.1927 53.125 22.7977C53.125 17.0977 50.0443 12.3629 45.9101 10.3869C41.9193 8.47956 36.534 8.96244 31.3795 14.5619C31.0245 14.9476 30.5242 15.1671 30 15.1671C29.4758 15.1671 28.9755 14.9476 28.6205 14.5619C23.466 8.96244 18.0807 8.47956 14.0899 10.3869ZM55.0553 31.9982C56.198 33.5794 56.875 35.5351 56.875 37.649C56.875 41.4441 55.2009 44.3152 53.101 46.5628C51.4357 48.3452 49.3899 49.8417 47.6552 51.1105C47.2695 51.3926 46.8993 51.6635 46.552 51.9237C45.8549 52.4461 45.0537 53.0442 44.2295 53.502C43.4039 53.9606 42.39 54.3752 41.25 54.3752C40.11 54.3752 39.0961 53.9606 38.2705 53.502C37.4731 53.0591 36.6973 52.4848 36.0164 51.9749C34.2529 53.2437 32.2104 54.3752 30 54.3752C28.2524 54.3752 26.6515 53.6755 25.2605 52.8255C23.8666 51.9739 22.4919 50.8483 21.2118 49.7931C20.5337 49.2343 19.8196 48.6613 19.0826 48.0699C12.1265 42.4884 3.125 35.2658 3.125 22.7977C3.125 15.7862 6.91951 9.65771 12.4729 7.00352C17.7449 4.4838 24.2312 5.25519 30 10.632C35.7688 5.25519 42.2551 4.4838 47.5271 7.00352C53.0805 9.65771 56.875 15.7862 56.875 22.7977C56.875 26.2249 56.1973 29.2686 55.0553 31.9982ZM32.802 32.3174C30.8148 33.1808 29.375 35.2262 29.375 37.649C29.375 42.3559 33.0477 45.1447 37.1125 48.1221C37.4762 48.3885 37.8411 48.6562 38.1967 48.9228C38.9273 49.4702 39.5274 49.9105 40.0914 50.2238C40.6539 50.5362 41.015 50.6252 41.25 50.6252C41.485 50.6252 41.8461 50.5362 42.4086 50.2238C42.9726 49.9105 43.5727 49.4702 44.3033 48.9228C44.7201 48.6104 45.1387 48.3035 45.5554 47.998C47.2742 46.7377 48.961 45.501 50.3609 44.0027C52.0358 42.2099 53.125 40.2097 53.125 37.649C53.125 36.0578 52.5048 34.629 51.5121 33.5891C50.497 32.5256 49.1082 31.8829 47.5994 31.8753C46.1112 31.8678 44.3403 32.4795 42.5675 34.2302C41.8372 34.9514 40.6628 34.9514 39.9325 34.2302C37.3272 31.6573 34.6934 31.4956 32.802 32.3174Z" fill="#1C1C1C"/>
</g>
</svg>
