<svg width="34" height="34" viewBox="0 0 34 34" fill="none" xmlns="http://www.w3.org/2000/svg">
<path d="M0 25.3261V9.57136C0 4.81669 3.88505 0.931641 8.63972 0.931641H24.3832C29.1379 0.931641 33.0229 4.81669 33.0229 9.57136V25.3148C33.0229 30.0695 29.1379 33.9546 24.3832 33.9546H19.0864L16.3195 33.2769L13.9365 33.9546H8.63972C3.88505 33.9546 0 30.0695 0 25.3148V25.3261Z" fill="white"/>
<path d="M22.9387 22.7619L23.6728 17.9846H19.0876V14.8901C19.0876 13.58 19.7313 12.3151 21.7755 12.3151H23.8535V8.24939C23.8535 8.24939 21.9675 7.92188 20.1605 7.92188C16.3883 7.92188 13.9263 10.2032 13.9263 14.348V17.9846H9.73633V22.7619H13.9263V33.954H19.0876V22.7619H22.9387Z" fill="black"/>
</svg>
