<svg width="34" height="34" viewBox="0 0 34 34" fill="none" xmlns="http://www.w3.org/2000/svg">
<path d="M33.0234 25.3383V9.5948C33.0234 4.82321 29.1553 0.955078 24.3837 0.955078L8.64023 0.955078C3.86864 0.955078 0.000507355 4.82321 0.000507355 9.5948V25.3383C0.000507355 30.1099 3.86864 33.978 8.64023 33.978H24.3837C29.1553 33.978 33.0234 30.1099 33.0234 25.3383Z" fill="white"/>
<path d="M9.57659 14.3938H12.7727V24.6711H9.57659V14.3938ZM11.1803 9.28906C12.208 9.28906 13.0325 10.1135 13.0325 11.1412C13.0325 12.169 12.208 12.9934 11.1803 12.9934C10.1526 12.9934 9.32812 12.1577 9.32812 11.1412C9.32812 10.1248 10.1526 9.28906 11.1803 9.28906Z" fill="black"/>
<path d="M14.7828 14.3945H17.8434V15.7949H17.8886C18.3177 14.9818 19.3568 14.1348 20.9153 14.1348C24.1453 14.1348 24.7439 16.258 24.7439 19.025V24.6605H21.5477V19.6687C21.5477 18.4716 21.5251 16.9469 19.8876 16.9469C18.25 16.9469 17.9676 18.2457 17.9676 19.5896V24.6718H14.7715V14.3945H14.7828Z" fill="black"/>
</svg>
