<svg width="34" height="34" viewBox="0 0 34 34" fill="none" xmlns="http://www.w3.org/2000/svg">
<path d="M33.0234 25.3598V9.61628C33.0234 4.8447 29.1553 0.976563 24.3837 0.976563L8.64023 0.976563C3.86864 0.976563 0.000507355 4.8447 0.000507355 9.61628V25.3598C0.000507355 30.1314 3.86864 33.9995 8.64023 33.9995H24.3837C29.1553 33.9995 33.0234 30.1314 33.0234 25.3598Z" fill="white"/>
<path fill-rule="evenodd" clip-rule="evenodd" d="M8.91649 11.3481C7.8418 12.4228 7.8418 14.1525 7.8418 17.6119C7.8418 21.0712 7.8418 22.8009 8.91649 23.8756C9.99117 24.9503 11.7209 24.9503 15.1802 24.9503H18.8494C22.3088 24.9503 24.0385 24.9503 25.1132 23.8756C26.1879 22.8009 26.1879 21.0712 26.1879 17.6119C26.1879 14.1525 26.1879 12.4228 25.1132 11.3481C24.0385 10.2734 22.3088 10.2734 18.8494 10.2734H15.1802C11.7209 10.2734 9.99117 10.2734 8.91649 11.3481ZM23.0472 13.5022C23.2904 13.7941 23.251 14.2279 22.9591 14.4712L20.9442 16.1502C20.1312 16.8278 19.4722 17.377 18.8906 17.751C18.2847 18.1407 17.6946 18.3869 17.0148 18.3869C16.335 18.3869 15.745 18.1407 15.1391 17.751C14.5575 17.377 13.8985 16.8278 13.0854 16.1502L11.0706 14.4712C10.7787 14.2279 10.7392 13.7941 10.9825 13.5022C11.2257 13.2103 11.6596 13.1709 11.9514 13.4141L13.9318 15.0644C14.7876 15.7776 15.3818 16.2711 15.8834 16.5938C16.369 16.9061 16.6983 17.0109 17.0148 17.0109C17.3314 17.0109 17.6607 16.9061 18.1463 16.5938C18.6479 16.2711 19.2421 15.7776 20.0979 15.0644L22.0782 13.4141C22.3701 13.1709 22.8039 13.2103 23.0472 13.5022Z" fill="black"/>
</svg>
