<svg width="33" height="34" viewBox="0 0 33 34" fill="none" xmlns="http://www.w3.org/2000/svg">
<g id="Group">
<path id="Vector" d="M33 24.6163V8.88372C33 4.11545 29.1346 0.25 24.3663 0.25L8.63372 0.25C3.86545 0.25 0 4.11545 0 8.88372V24.6163C0 29.3846 3.86545 33.25 8.63372 33.25H24.3663C29.1346 33.25 33 29.3846 33 24.6163Z" fill="white"/>
<g id="Group_2">
<path id="Vector_2" d="M21.6247 10.5312C21.004 10.5312 20.4961 11.0391 20.4961 11.6598C20.4961 12.2806 21.004 12.7997 21.6247 12.7997C22.2454 12.7997 22.7646 12.2919 22.7646 11.6598C22.7646 11.0278 22.2567 10.5312 21.6247 10.5312Z" fill="black"/>
<path id="Vector_3" d="M16.5791 11.9883C13.9494 11.9883 11.8164 14.1213 11.8164 16.7509C11.8164 19.3806 13.9494 21.5136 16.5791 21.5136C19.2087 21.5136 21.3417 19.3806 21.3417 16.7509C21.3417 14.1213 19.2087 11.9883 16.5791 11.9883ZM16.5791 19.8094C14.8975 19.8094 13.5319 18.4438 13.5319 16.7622C13.5319 15.0806 14.8975 13.715 16.5791 13.715C18.2607 13.715 19.6263 15.0806 19.6263 16.7622C19.6263 18.4438 18.2607 19.8094 16.5791 19.8094Z" fill="black"/>
<path id="Vector_4" d="M20.3599 26.4222H12.6404C9.43517 26.4222 6.82812 23.8151 6.82812 20.6099V12.8904C6.82812 9.68517 9.43517 7.07812 12.6404 7.07812H20.3599C23.5651 7.07812 26.1722 9.68517 26.1722 12.8904V20.6099C26.1722 23.8151 23.5651 26.4222 20.3599 26.4222ZM12.6404 8.89516C10.4396 8.89516 8.64516 10.6896 8.64516 12.8904V20.6099C8.64516 22.8107 10.4396 24.6051 12.6404 24.6051H20.3599C22.5607 24.6051 24.3551 22.8107 24.3551 20.6099V12.8904C24.3551 10.6896 22.5607 8.89516 20.3599 8.89516H12.6404Z" fill="black"/>
</g>
</g>
</svg>
