<svg width="65" height="19" viewBox="0 0 65 19" fill="none" xmlns="http://www.w3.org/2000/svg">
<path d="M61.7823 13.5918C60.5407 13.5918 59.5195 14.6184 59.5195 15.8546C59.5195 17.0961 60.5461 18.1173 61.7823 18.1173C63.0239 18.1173 64.0451 17.0907 64.0451 15.8546C64.0504 14.6076 63.0292 13.5918 61.7823 13.5918Z" fill="white"/>
<path d="M53.8711 1.76172V7.13107C53.468 6.63659 52.162 5.70139 50.4904 5.70139C47.0775 5.70139 44.4062 8.464 44.4062 11.8769C44.4062 15.2899 47.0721 18.0579 50.4904 18.0579C52.2318 18.0579 53.5917 17.0636 53.9625 16.5691H53.9948V17.9074H57.7194V1.76172H53.8711ZM50.7054 14.6772C49.1844 14.6772 47.9428 13.4356 47.9428 11.9146C47.9428 10.3935 49.1844 9.15196 50.7054 9.15196C52.2318 9.15196 53.468 10.3935 53.468 11.9146C53.468 13.4302 52.2265 14.6772 50.7054 14.6772Z" fill="white"/>
<path d="M14.426 5.92383C12.9963 5.92383 11.3839 6.69779 10.6422 7.9071H10.6099V6.26781H6.89062V17.9363H10.7336V11.7285C10.7336 10.4225 11.3893 9.15404 12.8781 9.15404C14.4582 9.15404 14.8291 10.1161 14.8291 11.2663V12.4756V17.9363H18.672V10.5783C18.6505 8.93367 18.4302 5.92383 14.426 5.92383Z" fill="white"/>
<path d="M2.39175 0C1.08569 0 0 1.05345 0 2.39175C0 3.69781 1.05345 4.7835 2.39175 4.7835C3.69781 4.7835 4.7835 3.73006 4.7835 2.39175C4.77813 1.08569 3.69243 0 2.39175 0Z" fill="white"/>
<path d="M26.4631 5.73438C23.0501 5.73438 20.3789 8.49698 20.3789 11.9099C20.3789 15.3229 23.0448 18.0855 26.4631 18.0855C28.2959 18.0855 30.0642 17.2793 31.209 16.0055L28.7581 13.7427C28.2636 14.3017 27.5165 14.6779 26.6781 14.6779C25.157 14.6779 23.9155 13.4364 23.9155 11.9153C23.9155 10.3943 25.157 9.1527 26.6781 9.1527C27.5165 9.1527 28.226 9.52355 28.7581 10.0879L31.209 7.82514C30.0373 6.54058 28.2959 5.73438 26.4631 5.73438Z" fill="white"/>
<path d="M44.6262 6.26669H40.0685L36.5265 10.2386V1.79492H32.6836V17.9298H34.9464H36.4943V13.5924L40.3372 17.9406H44.9326L39.4987 11.9209L44.6262 6.26669Z" fill="white"/>
<path d="M0.476562 6.26758V15.3186L4.29262 17.9307V6.26758" fill="white"/>
</svg>
