<svg width="106" height="31" viewBox="0 0 106 31" fill="none" xmlns="http://www.w3.org/2000/svg">
<g id="Inckd-logo-new">
<path id="Vector" d="M101.346 22.8652C99.3289 22.8652 97.6699 24.533 97.6699 26.5412C97.6699 28.5582 99.3377 30.2172 101.346 30.2172C103.363 30.2172 105.022 28.5495 105.022 26.5412C105.031 24.5155 103.372 22.8652 101.346 22.8652Z" fill="#101010"/>
<path id="Vector_2" d="M88.4935 3.64648V12.3693C87.8386 11.566 85.7168 10.0467 83.0013 10.0467C77.4568 10.0467 73.1172 14.5347 73.1172 20.0793C73.1172 25.6238 77.448 30.1206 83.0013 30.1206C85.8303 30.1206 88.0394 28.5052 88.6419 27.7019H88.6943V29.8761H94.7453V3.64648H88.4935ZM83.3506 24.6284C80.8795 24.6284 78.8626 22.6114 78.8626 20.1404C78.8626 17.6694 80.8795 15.6524 83.3506 15.6524C85.8303 15.6524 87.8386 17.6694 87.8386 20.1404C87.8386 22.6027 85.8216 24.6284 83.3506 24.6284Z" fill="#101010"/>
<path id="Vector_3" d="M24.4116 10.4062C22.089 10.4062 19.4695 11.6636 18.2646 13.6282H18.2122V10.9651H12.1699V29.9213H18.413V19.8363C18.413 17.7146 19.4782 15.6539 21.8969 15.6539C24.464 15.6539 25.0664 17.2169 25.0664 19.0854V21.05V29.9213H31.3095V17.9678C31.2746 15.2959 30.9166 10.4062 24.4116 10.4062Z" fill="#101010"/>
<path id="Vector_4" d="M4.86211 0.783203C2.74034 0.783203 0.976562 2.49459 0.976562 4.66875C0.976562 6.79052 2.68795 8.55429 4.86211 8.55429C6.98388 8.55429 8.74765 6.84291 8.74765 4.66875C8.73892 2.54698 6.97514 0.783203 4.86211 0.783203Z" fill="#101010"/>
<path id="Vector_5" d="M43.9701 10.0996C38.4255 10.0996 34.0859 14.5876 34.0859 20.1322C34.0859 25.6767 38.4168 30.1647 43.9701 30.1647C46.9475 30.1647 49.8202 28.855 51.68 26.7856L47.6984 23.1096C46.8951 24.0177 45.6814 24.6289 44.3193 24.6289C41.8483 24.6289 39.8313 22.6119 39.8313 20.1409C39.8313 17.6699 41.8483 15.6529 44.3193 15.6529C45.6814 15.6529 46.834 16.2554 47.6984 17.1722L51.68 13.4962C49.7766 11.4093 46.9475 10.0996 43.9701 10.0996Z" fill="#101010"/>
<path id="Vector_6" d="M73.4738 10.9639H66.0694L60.3153 17.4165V3.69922H54.0723V29.9114H57.7483H60.2629V22.865L66.506 29.9288H73.9715L65.1439 20.1495L73.4738 10.9639Z" fill="#101010"/>
<path id="Vector_7" d="M1.75391 10.9648V25.6688L7.95331 29.9123V10.9648" fill="#101010"/>
</g>
</svg>
