<svg width="105" height="31" viewBox="0 0 105 31" fill="none" xmlns="http://www.w3.org/2000/svg">
<g id="Inckd-logo-new">
<path id="Vector" d="M100.369 22.8652C98.3524 22.8652 96.6934 24.533 96.6934 26.5412C96.6934 28.5582 98.3611 30.2172 100.369 30.2172C102.386 30.2172 104.045 28.5495 104.045 26.5412C104.054 24.5155 102.395 22.8652 100.369 22.8652Z" fill="#101010"/>
<path id="Vector_2" d="M87.5169 3.64648V12.3693C86.862 11.566 84.7403 10.0467 82.0247 10.0467C76.4802 10.0467 72.1406 14.5347 72.1406 20.0793C72.1406 25.6238 76.4715 30.1206 82.0247 30.1206C84.8538 30.1206 87.0629 28.5052 87.6653 27.7019H87.7177V29.8761H93.7687V3.64648H87.5169ZM82.374 24.6284C79.903 24.6284 77.886 22.6114 77.886 20.1404C77.886 17.6694 79.903 15.6524 82.374 15.6524C84.8538 15.6524 86.862 17.6694 86.862 20.1404C86.862 22.6027 84.845 24.6284 82.374 24.6284Z" fill="#101010"/>
<path id="Vector_3" d="M23.435 10.4062C21.1124 10.4062 18.4929 11.6636 17.288 13.6282H17.2356V10.9651H11.1934V29.9213H17.4364V19.8363C17.4364 17.7146 18.5017 15.6539 20.9203 15.6539C23.4874 15.6539 24.0899 17.2169 24.0899 19.0854V21.05V29.9213H30.3329V17.9678C30.298 15.2959 29.94 10.4062 23.435 10.4062Z" fill="#101010"/>
<path id="Vector_4" d="M3.88554 0.783203C1.76378 0.783203 0 2.49459 0 4.66875C0 6.79052 1.71139 8.55429 3.88554 8.55429C6.00731 8.55429 7.77109 6.84291 7.77109 4.66875C7.76236 2.54698 5.99858 0.783203 3.88554 0.783203Z" fill="#101010"/>
<path id="Vector_5" d="M42.9935 10.0996C37.449 10.0996 33.1094 14.5876 33.1094 20.1322C33.1094 25.6767 37.4402 30.1647 42.9935 30.1647C45.971 30.1647 48.8436 28.855 50.7035 26.7856L46.7219 23.1096C45.9186 24.0177 44.7049 24.6289 43.3428 24.6289C40.8717 24.6289 38.8547 22.6119 38.8547 20.1409C38.8547 17.6699 40.8717 15.6529 43.3428 15.6529C44.7049 15.6529 45.8575 16.2554 46.7219 17.1722L50.7035 13.4962C48.8 11.4093 45.971 10.0996 42.9935 10.0996Z" fill="#101010"/>
<path id="Vector_6" d="M72.4972 10.9639H65.0929L59.3388 17.4165V3.69922H53.0957V29.9114H56.7717H59.2864V22.865L65.5294 29.9288H72.9949L64.1673 20.1495L72.4972 10.9639Z" fill="#101010"/>
<path id="Vector_7" d="M0.777344 10.9648V25.6688L6.97675 29.9123V10.9648" fill="#101010"/>
</g>
</svg>
