<svg width="54" height="55" viewBox="0 0 54 55" fill="none" xmlns="http://www.w3.org/2000/svg">
<g id="Outline / Electronic, Devices / iPhone">
<path id="Vector (Stroke)" fill-rule="evenodd" clip-rule="evenodd" d="M26.8731 3.51758H27.1269C31.2619 3.51754 34.5371 3.51751 37.1003 3.86213C39.7383 4.2168 41.8734 4.96406 43.5572 6.64788C45.241 8.33169 45.9883 10.4668 46.3429 13.1048C46.6876 15.668 46.6875 18.9432 46.6875 23.0782V32.332C46.6875 36.467 46.6876 39.7421 46.3429 42.3054C45.9883 44.9433 45.241 47.0785 43.5572 48.7623C41.8734 50.4461 39.7383 51.1934 37.1003 51.548C34.5371 51.8926 31.2619 51.8926 27.1269 51.8926H26.8731C22.7381 51.8926 19.4629 51.8926 16.8997 51.548C14.2617 51.1934 12.1266 50.4461 10.4428 48.7623C8.75898 47.0785 8.01172 44.9433 7.65705 42.3054C7.31244 39.7422 7.31247 36.467 7.3125 32.332V23.0781C7.31247 18.9432 7.31244 15.668 7.65705 13.1048C8.01172 10.4668 8.75898 8.33169 10.4428 6.64788C12.1266 4.96406 14.2618 4.2168 16.8997 3.86213C19.4629 3.51751 22.7381 3.51754 26.8731 3.51758ZM15.3314 7.6197C14.2311 7.94857 13.4544 8.40927 12.8293 9.03436C11.8771 9.98658 11.3063 11.2908 11.002 13.5545C10.6911 15.8667 10.6875 18.9147 10.6875 23.2051V32.2051C10.6875 36.4954 10.6911 39.5434 11.002 41.8557C11.3063 44.1194 11.8771 45.4236 12.8293 46.3758C13.7815 47.328 15.0857 47.8988 17.3494 48.2031C19.6617 48.514 22.7097 48.5176 27 48.5176C31.2903 48.5176 34.3383 48.514 36.6506 48.2031C38.9143 47.8988 40.2185 47.328 41.1707 46.3758C42.1229 45.4236 42.6937 44.1194 42.998 41.8557C43.3089 39.5434 43.3125 36.4954 43.3125 32.2051V23.2051C43.3125 18.9147 43.3089 15.8667 42.998 13.5545C42.6937 11.2908 42.1229 9.98658 41.1707 9.03436C40.5456 8.40927 39.7689 7.94857 38.6686 7.6197C37.1797 9.85549 36.1387 11.4098 34.5908 12.3716C34.282 12.5635 33.9611 12.7352 33.6302 12.8857C31.9603 13.6451 30.0758 13.6441 27.361 13.6427C27.2422 13.6426 27.1219 13.6426 27 13.6426C26.8781 13.6426 26.7578 13.6426 26.639 13.6427C23.9242 13.6441 22.0397 13.6451 20.3698 12.8857C20.0389 12.7352 19.718 12.5635 19.4092 12.3716C17.8613 11.4098 16.8203 9.85552 15.3314 7.6197ZM19.0154 7.04128C20.0146 8.48926 20.5378 9.0994 21.1905 9.50501C21.3758 9.62014 21.5683 9.72318 21.7669 9.81348C22.6869 10.2319 23.7771 10.2676 27 10.2676C30.2229 10.2676 31.3131 10.2319 32.2331 9.81348C32.4317 9.72318 32.6242 9.62014 32.8095 9.50501C33.4622 9.09941 33.9854 8.48924 34.9846 7.04128C32.9141 6.89474 30.3316 6.89258 27 6.89258C23.6684 6.89258 21.0859 6.89474 19.0154 7.04128ZM18.5625 43.4551C18.5625 42.5231 19.318 41.7676 20.25 41.7676H33.75C34.682 41.7676 35.4375 42.5231 35.4375 43.4551C35.4375 44.3871 34.682 45.1426 33.75 45.1426H20.25C19.318 45.1426 18.5625 44.3871 18.5625 43.4551Z" fill="#1C274C"/>
</g>
</svg>
