<svg width="51" height="50" viewBox="0 0 51 50" fill="none" xmlns="http://www.w3.org/2000/svg">
<g id="ireland" clip-path="url(#clip0_13117_123559)">
<path id="Vector" d="M25.6667 50C39.4738 50 50.6667 38.8071 50.6667 25C50.6667 11.1929 39.4738 0 25.6667 0C11.8596 0 0.666687 11.1929 0.666687 25C0.666687 38.8071 11.8596 50 25.6667 50Z" fill="#F0F0F0"/>
<path id="Vector_2" d="M50.6667 25C50.6667 14.251 43.8823 5.08728 34.3623 1.55505V48.4452C43.8823 44.9127 50.6667 35.7492 50.6667 25Z" fill="#FF9811"/>
<path id="Vector_3" d="M0.666687 25C0.666687 35.7492 7.45106 44.9127 16.9711 48.4451V1.55505C7.45106 5.08728 0.666687 14.251 0.666687 25Z" fill="#6DA544"/>
</g>
<defs>
<clipPath id="clip0_13117_123559">
<rect width="50" height="50" fill="white" transform="translate(0.666687)"/>
</clipPath>
</defs>
</svg>
