<svg width="51" height="50" viewBox="0 0 51 50" fill="none" xmlns="http://www.w3.org/2000/svg">
<g id="italy" clip-path="url(#clip0_13117_123465)">
<path id="Vector" d="M25.5 50C39.3071 50 50.5 38.8071 50.5 25C50.5 11.1929 39.3071 0 25.5 0C11.6929 0 0.5 11.1929 0.5 25C0.5 38.8071 11.6929 50 25.5 50Z" fill="#F0F0F0"/>
<path id="Vector_2" d="M50.5 25C50.5 14.2508 43.7156 5.08726 34.1956 1.55493V48.4451C43.7156 44.9126 50.5 35.7491 50.5 25Z" fill="#D80027"/>
<path id="Vector_3" d="M0.5 25C0.5 35.7491 7.28437 44.9126 16.8044 48.445V1.55493C7.28437 5.08726 0.5 14.2508 0.5 25Z" fill="#6DA544"/>
</g>
<defs>
<clipPath id="clip0_13117_123465">
<rect width="50" height="50" fill="white" transform="translate(0.5)"/>
</clipPath>
</defs>
</svg>
