<svg width="18" height="19" viewBox="0 0 18 19" fill="none" xmlns="http://www.w3.org/2000/svg">
<g id="Bold / Map &#38; Location / Map Point">
<path id="Vector" fill-rule="evenodd" clip-rule="evenodd" d="M9 2.29004C5.68629 2.29004 3 5.29198 3 8.66504C3 12.0117 4.91499 15.6493 7.9028 17.0459C8.59931 17.3714 9.40069 17.3714 10.0972 17.0459C13.085 15.6493 15 12.0117 15 8.66504C15 5.29198 12.3137 2.29004 9 2.29004ZM9 9.79004C9.82843 9.79004 10.5 9.11847 10.5 8.29004C10.5 7.46161 9.82843 6.79004 9 6.79004C8.17157 6.79004 7.5 7.46161 7.5 8.29004C7.5 9.11847 8.17157 9.79004 9 9.79004Z" fill="#212121"/>
</g>
</svg>
