<svg width="54" height="55" viewBox="0 0 54 55" fill="none" xmlns="http://www.w3.org/2000/svg">
<g id="Outline / Security / Lock Password">
<g id="Vector">
<path d="M20.25 36.7051C20.25 37.9477 19.2426 38.9551 18 38.9551C16.7574 38.9551 15.75 37.9477 15.75 36.7051C15.75 35.4624 16.7574 34.4551 18 34.4551C19.2426 34.4551 20.25 35.4624 20.25 36.7051Z" fill="#1C274C"/>
<path d="M29.25 36.7051C29.25 37.9477 28.2426 38.9551 27 38.9551C25.7574 38.9551 24.75 37.9477 24.75 36.7051C24.75 35.4624 25.7574 34.4551 27 34.4551C28.2426 34.4551 29.25 35.4624 29.25 36.7051Z" fill="#1C274C"/>
<path d="M36 38.9551C37.2426 38.9551 38.25 37.9477 38.25 36.7051C38.25 35.4624 37.2426 34.4551 36 34.4551C34.7574 34.4551 33.75 35.4624 33.75 36.7051C33.75 37.9477 34.7574 38.9551 36 38.9551Z" fill="#1C274C"/>
<path fill-rule="evenodd" clip-rule="evenodd" d="M11.8125 18.7051V21.6363C11.3021 21.6722 10.8211 21.7189 10.3686 21.7798C8.34332 22.052 6.6381 22.6346 5.28379 23.9889C3.92948 25.3432 3.34697 27.0484 3.07468 29.0736C2.81242 31.0243 2.81246 33.5045 2.8125 36.5816V36.8285C2.81246 39.9056 2.81242 42.3858 3.07468 44.3365C3.34697 46.3618 3.92948 48.067 5.28379 49.4213C6.6381 50.7756 8.34332 51.3581 10.3686 51.6304C12.3192 51.8927 14.7995 51.8926 17.8765 51.8926H36.1235C39.2005 51.8926 41.6808 51.8927 43.6315 51.6304C45.6567 51.3581 47.3619 50.7756 48.7162 49.4213C50.0705 48.067 50.653 46.3618 50.9253 44.3365C51.1876 42.3858 51.1876 39.9056 51.1875 36.8285V36.5816C51.1876 33.5045 51.1876 31.0243 50.9253 29.0736C50.653 27.0484 50.0705 25.3432 48.7162 23.9889C47.3619 22.6346 45.6567 22.052 43.6315 21.7798C43.1789 21.7189 42.6979 21.6722 42.1875 21.6363V18.7051C42.1875 10.3173 35.3878 3.51758 27 3.51758C18.6122 3.51758 11.8125 10.3173 11.8125 18.7051ZM27 6.89258C20.4761 6.89258 15.1875 12.1812 15.1875 18.7051V21.5253C16.0279 21.5175 16.9234 21.5176 17.8762 21.5176H36.1235C37.0763 21.5176 37.9722 21.5175 38.8125 21.5253V18.7051C38.8125 12.1812 33.5239 6.89258 27 6.89258ZM10.8183 25.1247C9.16728 25.3466 8.29299 25.7526 7.67028 26.3754C7.04756 26.9981 6.64155 27.8724 6.41958 29.5233C6.19109 31.2229 6.1875 33.4754 6.1875 36.7051C6.1875 39.9348 6.19109 42.1873 6.41958 43.8868C6.64155 45.5378 7.04756 46.4121 7.67028 47.0348C8.29299 47.6575 9.16728 48.0635 10.8183 48.2855C12.5178 48.514 14.7703 48.5176 18 48.5176H36C39.2297 48.5176 41.4822 48.514 43.1817 48.2855C44.8327 48.0635 45.707 47.6575 46.3297 47.0348C46.9525 46.4121 47.3585 45.5378 47.5804 43.8868C47.8089 42.1873 47.8125 39.9348 47.8125 36.7051C47.8125 33.4754 47.8089 31.2229 47.5804 29.5233C47.3585 27.8724 46.9525 26.9981 46.3297 26.3754C45.707 25.7526 44.8327 25.3466 43.1817 25.1247C41.4822 24.8962 39.2297 24.8926 36 24.8926H18C14.7703 24.8926 12.5178 24.8962 10.8183 25.1247Z" fill="#1C274C"/>
</g>
</g>
</svg>
