<svg width="51" height="50" viewBox="0 0 51 50" fill="none" xmlns="http://www.w3.org/2000/svg">
<g id="netherlands" clip-path="url(#clip0_13117_123562)">
<path id="Vector" d="M25.3334 50C39.1405 50 50.3334 38.8071 50.3334 25C50.3334 11.1929 39.1405 0 25.3334 0C11.5263 0 0.333374 11.1929 0.333374 25C0.333374 38.8071 11.5263 50 25.3334 50Z" fill="#F0F0F0"/>
<path id="Vector_2" d="M25.3334 0C14.5843 0 5.42069 6.78437 1.88837 16.3044H48.7785C45.2461 6.78437 36.0825 0 25.3334 0Z" fill="#A2001D"/>
<path id="Vector_3" d="M25.3334 50C36.0825 50 45.2461 43.2156 48.7784 33.6956H1.88837C5.42069 43.2156 14.5843 50 25.3334 50Z" fill="#0052B4"/>
</g>
<defs>
<clipPath id="clip0_13117_123562">
<rect width="50" height="50" fill="white" transform="translate(0.333374)"/>
</clipPath>
</defs>
</svg>
