<svg width="50" height="50" viewBox="0 0 50 50" fill="none" xmlns="http://www.w3.org/2000/svg">
<g id="portugal" clip-path="url(#clip0_13117_123565)">
<path id="Vector" d="M0 25C0 35.749 6.78438 44.9125 16.3042 48.4449L18.4782 24.9999L16.3042 1.55493C6.78438 5.08735 0 14.2508 0 25Z" fill="#6DA544"/>
<path id="Vector_2" d="M50 25C50 11.193 38.807 0 25 0C21.942 0 19.0126 0.550098 16.3042 1.55498V48.445C19.0126 49.45 21.942 50 25 50C38.807 50 50 38.807 50 25Z" fill="#D80027"/>
<path id="Vector_3" d="M16.3044 33.6957C21.1068 33.6957 25 29.8025 25 25C25 20.1976 21.1068 16.3044 16.3044 16.3044C11.5019 16.3044 7.60876 20.1976 7.60876 25C7.60876 29.8025 11.5019 33.6957 16.3044 33.6957Z" fill="#FFDA44"/>
<path id="Vector_4" d="M11.4131 20.6521V26.0869C11.4131 28.7882 13.6029 30.9782 16.3044 30.9782C19.0059 30.9782 21.1957 28.7883 21.1957 26.0869V20.6521H11.4131Z" fill="#D80027"/>
<path id="Vector_5" d="M16.3044 27.7174C15.4054 27.7174 14.674 26.9859 14.674 26.0869V23.9131H17.9348V26.087C17.9348 26.9859 17.2033 27.7174 16.3044 27.7174Z" fill="#F0F0F0"/>
</g>
<defs>
<clipPath id="clip0_13117_123565">
<rect width="50" height="50" fill="white"/>
</clipPath>
</defs>
</svg>
