<svg width="51" height="50" viewBox="0 0 51 50" fill="none" xmlns="http://www.w3.org/2000/svg">
<g id="romania" clip-path="url(#clip0_13117_123634)">
<path id="Vector" d="M34.029 1.55488C31.3206 0.550098 28.3914 1.29978e-08 25.3334 1.29978e-08C22.2754 -9.76433e-05 19.3461 0.550098 16.6378 1.55488L14.4639 24.9999L16.6378 48.4449C19.346 49.45 22.2753 50 25.3334 50C28.3913 50 31.3207 49.45 34.029 48.4449L36.2028 25L34.029 1.55488Z" fill="#FFDA44"/>
<path id="Vector_2" d="M50.3334 25C50.3334 14.2509 43.549 5.08716 34.029 1.55493V48.4452C43.549 44.9125 50.3333 35.7492 50.3334 25Z" fill="#D80027"/>
<path id="Vector_3" d="M0.333374 25C0.333374 35.7493 7.11775 44.9127 16.6376 48.4452L16.6377 1.55518C7.11775 5.0874 0.333374 14.2509 0.333374 25H0.333374Z" fill="#0052B4"/>
</g>
<defs>
<clipPath id="clip0_13117_123634">
<rect width="50" height="50" fill="white" transform="translate(0.333374)"/>
</clipPath>
</defs>
</svg>
