<svg width="20" height="21" viewBox="0 0 20 21" fill="none" xmlns="http://www.w3.org/2000/svg">
<g id="Outline / Settings, Fine Tuning / Tuning 3">
<g id="Vector">
<path fill-rule="evenodd" clip-rule="evenodd" d="M15.2077 6.62305C15.2077 8.34894 13.8086 9.74805 12.0827 9.74805C10.3568 9.74805 8.95768 8.34894 8.95768 6.62305C8.95768 4.89716 10.3568 3.49805 12.0827 3.49805C13.8086 3.49805 15.2077 4.89716 15.2077 6.62305ZM12.0827 8.49805C13.1182 8.49805 13.9577 7.65858 13.9577 6.62305C13.9577 5.58751 13.1182 4.74805 12.0827 4.74805C11.0471 4.74805 10.2077 5.58751 10.2077 6.62305C10.2077 7.65858 11.0471 8.49805 12.0827 8.49805Z" fill="#707070"/>
<path fill-rule="evenodd" clip-rule="evenodd" d="M4.79102 14.9564C4.79102 16.6823 6.19013 18.0814 7.91602 18.0814C9.64191 18.0814 11.041 16.6823 11.041 14.9564C11.041 13.2305 9.64191 11.8314 7.91602 11.8314C6.19013 11.8314 4.79102 13.2305 4.79102 14.9564ZM7.91602 16.8314C6.88048 16.8314 6.04102 15.9919 6.04102 14.9564C6.04102 13.9208 6.88048 13.0814 7.91602 13.0814C8.95155 13.0814 9.79102 13.9208 9.79102 14.9564C9.79102 15.9919 8.95155 16.8314 7.91602 16.8314Z" fill="#707070"/>
<path d="M11.8743 14.9218C11.8743 14.5766 12.1542 14.2968 12.4993 14.2968H18.3327C18.6779 14.2968 18.9577 14.5766 18.9577 14.9218C18.9577 15.267 18.6779 15.5468 18.3327 15.5468H12.4993C12.1542 15.5468 11.8743 15.267 11.8743 14.9218Z" fill="#707070"/>
<path d="M7.49935 5.96348C7.84453 5.96348 8.12435 6.2433 8.12435 6.58848C8.12435 6.93366 7.84453 7.21348 7.49935 7.21348L1.66602 7.21348C1.32084 7.21348 1.04102 6.93366 1.04102 6.58848C1.04102 6.2433 1.32084 5.96348 1.66602 5.96348L7.49935 5.96348Z" fill="#707070"/>
<path d="M1.04102 14.9218C1.04102 14.5766 1.32084 14.2968 1.66602 14.2968H3.33268C3.67786 14.2968 3.95768 14.5766 3.95768 14.9218C3.95768 15.267 3.67786 15.5468 3.33268 15.5468H1.66602C1.32084 15.5468 1.04102 15.267 1.04102 14.9218Z" fill="#707070"/>
<path d="M18.3327 5.96348C18.6779 5.96348 18.9577 6.2433 18.9577 6.58848C18.9577 6.93366 18.6779 7.21348 18.3327 7.21348H16.666C16.3208 7.21348 16.041 6.93366 16.041 6.58848C16.041 6.2433 16.3208 5.96348 16.666 5.96348H18.3327Z" fill="#707070"/>
</g>
</g>
</svg>
