<svg width="54" height="55" viewBox="0 0 54 55" fill="none" xmlns="http://www.w3.org/2000/svg">
<g id="Outline / Security / Shield Check">
<g id="Vector">
<path d="M33.8838 24.329C34.5045 23.6338 34.4441 22.567 33.7489 21.9463C33.0537 21.3256 31.9869 21.386 31.3662 22.0812L24.5893 29.6714L22.6338 27.4812C22.0131 26.786 20.9463 26.7256 20.2511 27.3463C19.5559 27.967 19.4955 29.0338 20.1162 29.729L23.3305 33.329C23.6507 33.6876 24.1086 33.8926 24.5893 33.8926C25.07 33.8926 25.5279 33.6876 25.8481 33.329L33.8838 24.329Z" fill="#1C274C"/>
<path fill-rule="evenodd" clip-rule="evenodd" d="M27 3.51758C24.8906 3.51758 22.8765 4.20739 19.6276 5.32009L17.9909 5.88039C14.6579 7.02127 12.0857 7.90176 10.2443 8.6498C9.31677 9.02661 8.51933 9.39158 7.87721 9.76449C7.25927 10.1234 6.63935 10.571 6.21817 11.171C5.80186 11.7642 5.5866 12.4934 5.45133 13.1953C5.3107 13.9251 5.2259 14.8005 5.17117 15.8056C5.0625 17.8014 5.0625 20.5355 5.0625 24.0818V27.6856C5.0625 41.413 15.4306 47.9945 21.5963 50.6878L21.6572 50.7145C22.4218 51.0486 23.1404 51.3626 23.9661 51.574C24.8379 51.7971 25.7642 51.8926 27 51.8926C28.2358 51.8926 29.1621 51.7971 30.0339 51.574C30.8596 51.3626 31.5782 51.0486 32.3427 50.7145L32.4037 50.6878C38.5694 47.9945 48.9375 41.413 48.9375 27.6856V24.0822C48.9375 20.5357 48.9375 17.8015 48.8288 15.8056C48.7741 14.8005 48.6893 13.9251 48.5487 13.1953C48.4134 12.4934 48.1981 11.7642 47.7818 11.171C47.3606 10.571 46.7407 10.1234 46.1228 9.76449C45.4807 9.39158 44.6832 9.02661 43.7557 8.6498C41.9143 7.90175 39.3421 7.02127 36.0091 5.88038L34.3724 5.32009C31.1235 4.20739 29.1094 3.51758 27 3.51758ZM20.4314 8.61225C24.0641 7.36876 25.5201 6.89258 27 6.89258C28.4799 6.89258 29.9359 7.36876 33.5686 8.61225L34.8574 9.05342C38.2608 10.2184 40.7428 11.0687 42.4854 11.7766C43.3552 12.13 43.9855 12.4261 44.4279 12.683C44.6463 12.8099 44.7967 12.9145 44.8972 12.9962C44.9824 13.0654 45.0149 13.1046 45.0196 13.1104C45.0239 13.1174 45.0519 13.1642 45.0913 13.2748C45.1363 13.401 45.1861 13.582 45.2346 13.834C45.3329 14.3439 45.4074 15.0444 45.4588 15.9891C45.5619 17.8818 45.5625 20.5238 45.5625 24.1426V27.6856C45.5625 39.3296 36.8552 45.0604 31.0527 47.5951C30.2169 47.9602 29.7342 48.1668 29.1969 48.3044C28.6837 48.4358 28.0575 48.5176 27 48.5176C25.9425 48.5176 25.3163 48.4358 24.8031 48.3044C24.2658 48.1668 23.7831 47.9602 22.9473 47.595C17.1448 45.0604 8.4375 39.3296 8.4375 27.6856V24.1426C8.4375 20.5238 8.43812 17.8818 8.54118 15.9891C8.59263 15.0444 8.66709 14.3439 8.76536 13.834C8.81391 13.582 8.86375 13.401 8.90872 13.2748C8.94809 13.1642 8.97606 13.1175 8.9804 13.1104C8.98506 13.1047 9.01754 13.0655 9.10276 12.9962C9.20326 12.9145 9.35375 12.8099 9.57215 12.683C10.0145 12.4261 10.6448 12.13 11.5146 11.7766C13.2572 11.0687 15.7392 10.2184 19.1426 9.05342L20.4314 8.61225Z" fill="#1C274C"/>
</g>
</g>
</svg>
