<svg width="51" height="50" viewBox="0 0 51 50" fill="none" xmlns="http://www.w3.org/2000/svg">
<g clip-path="url(#clip0_13117_123469)">
<path d="M0.5 25C0.5 28.058 1.0501 30.9873 2.05498 33.6956L25.5 35.8696L48.945 33.6956C49.9499 30.9873 50.5 28.058 50.5 25C50.5 21.942 49.9499 19.0127 48.945 16.3044L25.5 14.1305L2.05498 16.3044C1.0501 19.0127 0.5 21.942 0.5 25H0.5Z" fill="#FFDA44"/>
<path d="M48.945 16.3044C45.4126 6.78447 36.2491 0 25.5 0C14.7508 0 5.58726 6.78447 2.05493 16.3044H48.945Z" fill="#D80027"/>
<path d="M2.05493 33.6956C5.58726 43.2155 14.7508 50 25.5 50C36.2491 50 45.4126 43.2155 48.945 33.6956H2.05493Z" fill="#D80027"/>
</g>
<defs>
<clipPath id="clip0_13117_123469">
<rect width="50" height="50" fill="white" transform="translate(0.5)"/>
</clipPath>
</defs>
</svg>
