<svg width="105" height="53" viewBox="0 0 105 53" fill="none" xmlns="http://www.w3.org/2000/svg">
<path d="M100.91 22.082C98.8926 22.082 97.2336 23.7498 97.2336 25.758C97.2336 27.775 98.9014 29.434 100.91 29.434C102.927 29.434 104.586 27.7663 104.586 25.758C104.594 23.7323 102.935 22.082 100.91 22.082Z" fill="white"/>
<path d="M88.0565 2.86426V11.5871C87.4016 10.7838 85.2798 9.26449 82.5643 9.26449C77.0198 9.26449 72.6802 13.7525 72.6802 19.2971C72.6802 24.8416 77.011 29.3383 82.5643 29.3383C85.3933 29.3383 87.6024 27.723 88.2049 26.9197H88.2573V29.0939H94.3082V2.86426H88.0565ZM82.9136 23.8462C80.4425 23.8462 78.4255 21.8292 78.4255 19.3582C78.4255 16.8871 80.4425 14.8702 82.9136 14.8702C85.3933 14.8702 87.4016 16.8871 87.4016 19.3582C87.4016 21.8205 85.3846 23.8462 82.9136 23.8462Z" fill="white"/>
<path d="M23.9765 9.62207C21.6539 9.62207 19.0344 10.8794 17.8295 12.844H17.7771V10.1809H11.7349V29.1371H17.9779V19.0522C17.9779 16.9304 19.0432 14.8697 21.4618 14.8697C24.0289 14.8697 24.6314 16.4327 24.6314 18.3012V20.2658V29.1371H30.8744V17.1836C30.8395 14.5117 30.4815 9.62207 23.9765 9.62207Z" fill="white"/>
<path d="M4.42607 0C2.3043 0 0.540527 1.71139 0.540527 3.88554C0.540527 6.00731 2.25191 7.77109 4.42607 7.77109C6.54784 7.77109 8.31162 6.0597 8.31162 3.88554C8.30288 1.76378 6.53911 0 4.42607 0Z" fill="white"/>
<path d="M43.5345 9.31641C37.99 9.31641 33.6504 13.8044 33.6504 19.349C33.6504 24.8935 37.9812 29.3815 43.5345 29.3815C46.512 29.3815 49.3847 28.0718 51.2445 26.0024L47.2629 22.3264C46.4596 23.2345 45.2459 23.8457 43.8838 23.8457C41.4127 23.8457 39.3958 21.8287 39.3958 19.3577C39.3958 16.8867 41.4127 14.8697 43.8838 14.8697C45.2459 14.8697 46.3985 15.4722 47.2629 16.389L51.2445 12.713C49.341 10.6261 46.512 9.31641 43.5345 9.31641Z" fill="white"/>
<path d="M73.0382 10.1807H65.6339L59.8798 16.6333V2.91602H53.6367V29.1282H57.3127H59.8274V22.0818L66.0705 29.1456H73.5359L64.7083 19.3663L73.0382 10.1807Z" fill="white"/>
<path d="M1.31787 10.1807V24.8846L7.51728 29.1281V10.1807" fill="white"/>
<path d="M5.86153 48.6386C5.23819 48.6386 4.66586 48.5649 4.14453 48.4176C3.63453 48.2702 3.18119 48.0662 2.78453 47.8056C2.39919 47.5449 2.07619 47.2559 1.81553 46.9386C1.56619 46.6099 1.39053 46.2699 1.28853 45.9186L3.22653 45.3236C3.37386 45.7429 3.66286 46.1112 4.09353 46.4286C4.52419 46.7459 5.05686 46.9102 5.69153 46.9216C6.42819 46.9216 7.01186 46.7686 7.44253 46.4626C7.87319 46.1566 8.08853 45.7542 8.08853 45.2556C8.08853 44.8022 7.90719 44.4339 7.54453 44.1506C7.18186 43.8559 6.69453 43.6292 6.08253 43.4706L4.62053 43.0966C4.06519 42.9492 3.56086 42.7339 3.10753 42.4506C2.66553 42.1672 2.31419 41.8102 2.05353 41.3796C1.80419 40.9489 1.67953 40.4389 1.67953 39.8496C1.67953 38.7389 2.04219 37.8776 2.76753 37.2656C3.49286 36.6422 4.52986 36.3306 5.87853 36.3306C6.63786 36.3306 7.30086 36.4496 7.86753 36.6876C8.44553 36.9142 8.92153 37.2316 9.29553 37.6396C9.66953 38.0362 9.94719 38.4896 10.1285 38.9996L8.22453 39.6116C8.05453 39.1582 7.75986 38.7842 7.34053 38.4896C6.92119 38.1949 6.39986 38.0476 5.77653 38.0476C5.13053 38.0476 4.62053 38.2006 4.24653 38.5066C3.88386 38.8126 3.70253 39.2376 3.70253 39.7816C3.70253 40.2236 3.84419 40.5692 4.12753 40.8186C4.42219 41.0566 4.81886 41.2379 5.31753 41.3626L6.77953 41.7196C7.84486 41.9802 8.67219 42.4279 9.26153 43.0626C9.85086 43.6972 10.1455 44.3999 10.1455 45.1706C10.1455 45.8506 9.98119 46.4512 9.65253 46.9726C9.32386 47.4939 8.83653 47.9019 8.19053 48.1966C7.55586 48.4912 6.77953 48.6386 5.86153 48.6386ZM15.3535 48.6386C14.4582 48.6386 13.7725 48.4176 13.2965 47.9756C12.8318 47.5222 12.5995 46.8762 12.5995 46.0376V37.2826H14.4865V45.6806C14.4865 46.0772 14.5772 46.3776 14.7585 46.5816C14.9512 46.7856 15.2288 46.8876 15.5915 46.8876C15.7048 46.8876 15.8295 46.8649 15.9655 46.8196C16.1015 46.7742 16.2545 46.6892 16.4245 46.5646L17.1215 48.0096C16.8268 48.2136 16.5322 48.3666 16.2375 48.4686C15.9428 48.5819 15.6482 48.6386 15.3535 48.6386ZM11.1885 41.5666V39.9346H16.7815V41.5666H11.1885ZM19.9873 52.0386C19.7153 52.0386 19.4093 51.9876 19.0693 51.8856C18.7407 51.7836 18.4233 51.6532 18.1173 51.4946L18.8313 49.9476C19.0467 50.0496 19.245 50.1289 19.4263 50.1856C19.6077 50.2536 19.755 50.2876 19.8683 50.2876C20.1403 50.2876 20.367 50.2139 20.5483 50.0666C20.741 49.9306 20.894 49.7266 21.0073 49.4546L22.0103 47.1086L24.8833 39.9346H26.9573L23.0133 49.3356C22.7753 49.8796 22.5317 50.3556 22.2823 50.7636C22.0443 51.1716 21.744 51.4832 21.3813 51.6986C21.0187 51.9252 20.554 52.0386 19.9873 52.0386ZM21.5003 48.4346L17.6923 39.9346H19.7663L22.7243 47.0916L23.3363 48.4346H21.5003ZM28.0906 48.4346V36.5346H29.9946V48.4346H28.0906ZM35.8992 48.6386C35.0719 48.6386 34.3352 48.4516 33.6892 48.0776C33.0545 47.6922 32.5502 47.1652 32.1762 46.4966C31.8135 45.8279 31.6322 45.0572 31.6322 44.1846C31.6322 43.3119 31.8192 42.5412 32.1932 41.8726C32.5672 41.2039 33.0772 40.6826 33.7232 40.3086C34.3805 39.9232 35.1285 39.7306 35.9672 39.7306C36.7265 39.7306 37.4065 39.9289 38.0072 40.3256C38.6192 40.7109 39.1065 41.2719 39.4692 42.0086C39.8319 42.7452 40.0132 43.6236 40.0132 44.6436H38.0922C38.0922 43.9069 38.0015 43.3006 37.8202 42.8246C37.6502 42.3486 37.4009 41.9972 37.0722 41.7706C36.7549 41.5326 36.3639 41.4136 35.8992 41.4136C35.4119 41.4136 34.9925 41.5212 34.6412 41.7366C34.2899 41.9519 34.0235 42.2692 33.8422 42.6886C33.6609 43.0966 33.5702 43.6122 33.5702 44.2356C33.5702 44.7909 33.6779 45.2669 33.8932 45.6636C34.1199 46.0602 34.4202 46.3662 34.7942 46.5816C35.1795 46.7856 35.6045 46.8876 36.0692 46.8876C36.5792 46.8876 36.9985 46.7742 37.3272 46.5476C37.6559 46.3096 37.9109 46.0092 38.0922 45.6466L39.8432 46.3946C39.6052 46.8479 39.2992 47.2446 38.9252 47.5846C38.5625 47.9246 38.1262 48.1852 37.6162 48.3666C37.1175 48.5479 36.5452 48.6386 35.8992 48.6386ZM32.8902 44.6436V43.1306H39.0102V44.6436H32.8902ZM45.1265 52.0556C44.5258 52.0556 43.9818 52.0046 43.4945 51.9026C43.0185 51.8006 42.6161 51.6816 42.2875 51.5456C41.9588 51.4096 41.7038 51.2792 41.5225 51.1546L42.2535 49.6246C42.4121 49.7039 42.6218 49.8002 42.8825 49.9136C43.1545 50.0382 43.4718 50.1459 43.8345 50.2366C44.1971 50.3272 44.6051 50.3726 45.0585 50.3726C45.5458 50.3726 45.9821 50.2706 46.3675 50.0666C46.7528 49.8739 47.0531 49.5736 47.2685 49.1656C47.4838 48.7576 47.5915 48.2362 47.5915 47.6016V39.9346H49.4955V47.5506C49.4955 48.5139 49.3141 49.3299 48.9515 49.9986C48.5888 50.6786 48.0788 51.1886 47.4215 51.5286C46.7641 51.8799 45.9991 52.0556 45.1265 52.0556ZM44.8375 48.2646C44.0668 48.2646 43.3925 48.0889 42.8145 47.7376C42.2478 47.3862 41.8001 46.8989 41.4715 46.2756C41.1541 45.6409 40.9955 44.9099 40.9955 44.0826C40.9955 43.1986 41.1541 42.4336 41.4715 41.7876C41.8001 41.1416 42.2478 40.6372 42.8145 40.2746C43.3925 39.9119 44.0668 39.7306 44.8375 39.7306C45.5288 39.7306 46.1295 39.9119 46.6395 40.2746C47.1608 40.6372 47.5631 41.1472 47.8465 41.8046C48.1298 42.4506 48.2715 43.2156 48.2715 44.0996C48.2715 44.9382 48.1298 45.6692 47.8465 46.2926C47.5631 46.9159 47.1608 47.4032 46.6395 47.7546C46.1295 48.0946 45.5288 48.2646 44.8375 48.2646ZM45.3645 46.6496C45.7951 46.6496 46.1691 46.5362 46.4865 46.3096C46.8151 46.0829 47.0701 45.7769 47.2515 45.3916C47.4328 44.9949 47.5235 44.5416 47.5235 44.0316C47.5235 43.5102 47.4328 43.0569 47.2515 42.6716C47.0701 42.2749 46.8151 41.9689 46.4865 41.7536C46.1578 41.5269 45.7781 41.4136 45.3475 41.4136C44.8941 41.4136 44.4918 41.5269 44.1405 41.7536C43.8005 41.9689 43.5285 42.2749 43.3245 42.6716C43.1318 43.0569 43.0355 43.5102 43.0355 44.0316C43.0355 44.5416 43.1318 44.9949 43.3245 45.3916C43.5285 45.7769 43.8061 46.0829 44.1575 46.3096C44.5088 46.5362 44.9111 46.6496 45.3645 46.6496ZM57.2934 48.4346L57.1914 46.8706V39.9346H59.0784V48.4346H57.2934ZM51.4114 44.7966V39.9346H53.3154V44.2866L51.4114 44.7966ZM53.3154 44.2866C53.3154 44.9552 53.3948 45.4766 53.5534 45.8506C53.7121 46.2246 53.9274 46.4852 54.1994 46.6326C54.4828 46.7799 54.8058 46.8536 55.1684 46.8536C55.8144 46.8649 56.3131 46.6552 56.6644 46.2246C57.0158 45.7939 57.1914 45.1762 57.1914 44.3716H57.9054C57.9054 45.2669 57.7694 46.0376 57.4974 46.6836C57.2368 47.3182 56.8628 47.8056 56.3754 48.1456C55.8994 48.4742 55.3271 48.6386 54.6584 48.6386C53.6271 48.6386 52.8281 48.3212 52.2614 47.6866C51.6948 47.0519 51.4114 46.0886 51.4114 44.7966L53.3154 44.2866ZM61.3131 48.4346L61.3301 39.9346H63.2171L63.2001 48.4346H61.3131ZM62.2651 38.3196C61.9591 38.3196 61.6928 38.2119 61.4661 37.9966C61.2508 37.7699 61.1431 37.5036 61.1431 37.1976C61.1431 36.8916 61.2508 36.6309 61.4661 36.4156C61.6928 36.2002 61.9591 36.0926 62.2651 36.0926C62.5711 36.0926 62.8318 36.2002 63.0471 36.4156C63.2738 36.6309 63.3871 36.8916 63.3871 37.1976C63.3871 37.5036 63.2738 37.7699 63.0471 37.9966C62.8318 38.2119 62.5711 38.3196 62.2651 38.3196ZM71.5811 48.4346L71.4961 46.8536V36.5346H73.3831V48.4346H71.5811ZM68.8101 48.6386C68.0395 48.6386 67.3651 48.4572 66.7871 48.0946C66.2205 47.7206 65.7728 47.1992 65.4441 46.5306C65.1268 45.8619 64.9681 45.0799 64.9681 44.1846C64.9681 43.2779 65.1268 42.4959 65.4441 41.8386C65.7728 41.1699 66.2205 40.6542 66.7871 40.2916C67.3651 39.9176 68.0395 39.7306 68.8101 39.7306C69.5241 39.7306 70.1361 39.9176 70.6461 40.2916C71.1675 40.6542 71.5641 41.1699 71.8361 41.8386C72.1081 42.4959 72.2441 43.2779 72.2441 44.1846C72.2441 45.0799 72.1081 45.8619 71.8361 46.5306C71.5641 47.1992 71.1675 47.7206 70.6461 48.0946C70.1361 48.4572 69.5241 48.6386 68.8101 48.6386ZM69.2861 46.9046C69.7168 46.9046 70.0965 46.7912 70.4251 46.5646C70.7651 46.3266 71.0258 46.0036 71.2071 45.5956C71.3998 45.1876 71.4961 44.7172 71.4961 44.1846C71.4961 43.6519 71.3998 43.1816 71.2071 42.7736C71.0258 42.3656 70.7651 42.0482 70.4251 41.8216C70.0965 41.5949 69.7111 41.4816 69.2691 41.4816C68.8158 41.4816 68.4135 41.5949 68.0621 41.8216C67.7108 42.0482 67.4331 42.3656 67.2291 42.7736C67.0365 43.1816 66.9345 43.6519 66.9231 44.1846C66.9345 44.7172 67.0365 45.1876 67.2291 45.5956C67.4331 46.0036 67.7108 46.3266 68.0621 46.5646C68.4248 46.7912 68.8328 46.9046 69.2861 46.9046ZM79.2791 48.6386C78.4517 48.6386 77.7151 48.4516 77.0691 48.0776C76.4344 47.6922 75.9301 47.1652 75.5561 46.4966C75.1934 45.8279 75.0121 45.0572 75.0121 44.1846C75.0121 43.3119 75.1991 42.5412 75.5731 41.8726C75.9471 41.2039 76.4571 40.6826 77.1031 40.3086C77.7604 39.9232 78.5084 39.7306 79.3471 39.7306C80.1064 39.7306 80.7864 39.9289 81.3871 40.3256C81.9991 40.7109 82.4864 41.2719 82.8491 42.0086C83.2117 42.7452 83.3931 43.6236 83.3931 44.6436H81.4721C81.4721 43.9069 81.3814 43.3006 81.2001 42.8246C81.0301 42.3486 80.7807 41.9972 80.4521 41.7706C80.1347 41.5326 79.7437 41.4136 79.2791 41.4136C78.7917 41.4136 78.3724 41.5212 78.0211 41.7366C77.6697 41.9519 77.4034 42.2692 77.2221 42.6886C77.0407 43.0966 76.9501 43.6122 76.9501 44.2356C76.9501 44.7909 77.0577 45.2669 77.2731 45.6636C77.4997 46.0602 77.8001 46.3662 78.1741 46.5816C78.5594 46.7856 78.9844 46.8876 79.4491 46.8876C79.9591 46.8876 80.3784 46.7742 80.7071 46.5476C81.0357 46.3096 81.2907 46.0092 81.4721 45.6466L83.2231 46.3946C82.9851 46.8479 82.6791 47.2446 82.3051 47.5846C81.9424 47.9246 81.5061 48.1852 80.9961 48.3666C80.4974 48.5479 79.9251 48.6386 79.2791 48.6386ZM76.2701 44.6436V43.1306H82.3901V44.6436H76.2701Z" fill="white"/>
</svg>
