<svg width="50" height="50" viewBox="0 0 50 50" fill="none" xmlns="http://www.w3.org/2000/svg">
<g clip-path="url(#clip0_13117_123638)">
<path d="M25 50C38.8071 50 50 38.8071 50 25C50 11.1929 38.8071 0 25 0C11.1929 0 0 11.1929 0 25C0 38.8071 11.1929 50 25 50Z" fill="#FFDA44"/>
<path d="M19.5654 21.7392H49.7885C48.1905 9.47285 37.7019 0 25.0001 0C23.1335 0 21.3152 0.206348 19.5653 0.594238V21.7392H19.5654Z" fill="#0052B4"/>
<path d="M13.0435 21.7391V3.03979C6.17886 6.7853 1.2647 13.6555 0.21167 21.7392H13.0435V21.7391Z" fill="#0052B4"/>
<path d="M13.0434 28.2607H0.21167C1.2647 36.3444 6.17886 43.2147 13.0435 46.9601L13.0434 28.2607Z" fill="#0052B4"/>
<path d="M19.5653 28.2608V49.4057C21.3152 49.7936 23.1335 49.9999 25.0001 49.9999C37.7019 49.9999 48.1905 40.5271 49.7885 28.2607H19.5653V28.2608Z" fill="#0052B4"/>
</g>
<defs>
<clipPath id="clip0_13117_123638">
<rect width="50" height="50" fill="white"/>
</clipPath>
</defs>
</svg>
