<svg width="51" height="50" viewBox="0 0 51 50" fill="none" xmlns="http://www.w3.org/2000/svg">
<g clip-path="url(#clip0_13117_123477)">
<path d="M25.25 50C39.0571 50 50.25 38.8071 50.25 25C50.25 11.1929 39.0571 0 25.25 0C11.4429 0 0.25 11.1929 0.25 25C0.25 38.8071 11.4429 50 25.25 50Z" fill="#F0F0F0"/>
<path d="M5.41794 9.77942C3.45417 12.3344 1.97341 15.2792 1.11121 18.4783H14.1169L5.41794 9.77942Z" fill="#0052B4"/>
<path d="M49.3888 18.4784C48.5266 15.2793 47.0457 12.3345 45.082 9.77954L36.3833 18.4784H49.3888Z" fill="#0052B4"/>
<path d="M1.11121 31.5219C1.97351 34.7209 3.45427 37.6657 5.41794 40.2206L14.1166 31.5219H1.11121Z" fill="#0052B4"/>
<path d="M40.4705 5.16804C37.9155 3.20427 34.9708 1.72351 31.7717 0.861206V13.8668L40.4705 5.16804Z" fill="#0052B4"/>
<path d="M10.0295 44.8319C12.5845 46.7957 15.5293 48.2765 18.7283 49.1388V36.1333L10.0295 44.8319Z" fill="#0052B4"/>
<path d="M18.7282 0.861206C15.5292 1.72351 12.5844 3.20427 10.0295 5.16794L18.7282 13.8667V0.861206Z" fill="#0052B4"/>
<path d="M31.7717 49.1388C34.9708 48.2765 37.9156 46.7957 40.4705 44.832L31.7717 36.1333V49.1388Z" fill="#0052B4"/>
<path d="M36.3833 31.5219L45.082 40.2207C47.0457 37.6658 48.5266 34.7209 49.3888 31.5219H36.3833Z" fill="#0052B4"/>
<path d="M50.0384 21.7392H28.511H28.5109V0.211621C27.4435 0.0726563 26.3552 0 25.25 0C24.1446 0 23.0565 0.0726563 21.9892 0.211621V21.739V21.7391H0.461621C0.322656 22.8065 0.25 23.8948 0.25 25C0.25 26.1054 0.322656 27.1935 0.461621 28.2608H21.989H21.9891V49.7884C23.0565 49.9273 24.1446 50 25.25 50C26.3552 50 27.4435 49.9274 28.5108 49.7884V28.261V28.2609H50.0384C50.1773 27.1935 50.25 26.1054 50.25 25C50.25 23.8948 50.1773 22.8065 50.0384 21.7392Z" fill="#D80027"/>
<path d="M31.7718 31.5218L42.9277 42.6777C43.4407 42.1648 43.9302 41.6286 44.3972 41.0727L34.8462 31.5217H31.7718V31.5218Z" fill="#D80027"/>
<path d="M18.7282 31.5219H18.728L7.57227 42.6776C8.08516 43.1907 8.62139 43.6802 9.17725 44.1471L18.7282 34.596V31.5219Z" fill="#D80027"/>
<path d="M18.7282 18.4784V18.4782L7.57238 7.32227C7.05929 7.83516 6.56984 8.37139 6.10284 8.92725L15.6539 18.4783H18.7282V18.4784Z" fill="#D80027"/>
<path d="M31.7718 18.4784L42.9277 7.32234C42.4149 6.80925 41.8786 6.3198 41.3228 5.85291L31.7718 15.404V18.4784Z" fill="#D80027"/>
</g>
<defs>
<clipPath id="clip0_13117_123477">
<rect width="50" height="50" fill="white" transform="translate(0.25)"/>
</clipPath>
</defs>
</svg>
